<svg width="20" height="20" viewBox="0 0 20 20" fill="none" xmlns="http://www.w3.org/2000/svg">
<path d="M10 20C15.5228 20 20 15.5228 20 10C20 4.47715 15.5228 0 10 0C4.47715 0 0 4.47715 0 10C0 15.5228 4.47715 20 10 20Z" fill="#EAA900"/>
<path d="M10.0039 8.34856L8.44775 9.90466L10.0039 11.4608L11.56 9.90466L10.0039 8.34856Z" fill="white"/>
<path d="M4.6811 8.35534L3.125 9.91144L4.6811 11.4675L6.23721 9.91144L4.6811 8.35534Z" fill="white"/>
<path d="M14.0106 7.30959L10.0054 3.125L5.98975 7.30959L7.48248 8.85417L10.0054 6.2251L12.5284 8.85417L14.0106 7.30959Z" fill="white"/>
<path d="M5.98975 12.6904L10.0054 16.875L14.0106 12.6904L12.5284 11.1458L10.0054 13.7749L7.48248 11.1458L5.98975 12.6904Z" fill="white"/>
<path d="M15.3188 8.34954L13.7627 9.90564L15.3188 11.4617L16.8749 9.90564L15.3188 8.34954Z" fill="white"/>
</svg>
