<svg width="29" height="29" viewBox="0 0 29 29" fill="none" xmlns="http://www.w3.org/2000/svg">
<path d="M14.5 29C22.5081 29 29 22.5081 29 14.5C29 6.49187 22.5081 0 14.5 0C6.49187 0 0 6.49187 0 14.5C0 22.5081 6.49187 29 14.5 29Z" fill="#5470DD"/>
<path d="M14.498 3.625V11.6634L21.2922 14.6994L14.498 3.625Z" fill="white" fill-opacity="0.602"/>
<path d="M14.4982 3.625L7.70312 14.6994L14.4982 11.6634V3.625Z" fill="white"/>
<path d="M14.498 19.9085V25.3704L21.2967 15.9645L14.498 19.9085Z" fill="white" fill-opacity="0.602"/>
<path d="M14.4982 25.3704V19.9076L7.70312 15.9645L14.4982 25.3704Z" fill="white"/>
<path d="M14.498 18.6443L21.2922 14.6993L14.498 11.6652V18.6443Z" fill="white" fill-opacity="0.2"/>
<path d="M7.70312 14.6993L14.4982 18.6443V11.6652L7.70312 14.6993Z" fill="white" fill-opacity="0.602"/>
</svg>
