<svg width="29" height="29" viewBox="0 0 29 29" fill="none" xmlns="http://www.w3.org/2000/svg">
<g opacity="0.4">
<path d="M14.5 29C22.5081 29 29 22.5081 29 14.5C29 6.49187 22.5081 0 14.5 0C6.49187 0 0 6.49187 0 14.5C0 22.5081 6.49187 29 14.5 29Z" fill="#FAB700"/>
<path d="M14.5059 11.8877L12.0444 14.3492L14.5059 16.8107L16.9674 14.3492L14.5059 11.8877Z" fill="#0B0E15"/>
<path d="M6.08647 11.8985L3.625 14.3599L6.08647 16.8214L8.54794 14.3599L6.08647 11.8985Z" fill="#0B0E15"/>
<path d="M20.8438 10.2443L14.5083 3.625L8.15625 10.2443L10.5175 12.6875L14.5083 8.5288L18.4991 12.6875L20.8438 10.2443Z" fill="#0B0E15"/>
<path d="M8.15625 18.7557L14.5083 25.375L20.8438 18.7557L18.4991 16.3125L14.5083 20.4712L10.5175 16.3125L8.15625 18.7557Z" fill="#0B0E15"/>
<path d="M22.9136 11.8893L20.4521 14.3508L22.9136 16.8122L25.3751 14.3508L22.9136 11.8893Z" fill="#0B0E15"/>
</g>
</svg>
