<svg id="Layer_1" data-name="Layer 1" xmlns="http://www.w3.org/2000/svg" viewBox="0 0 335.32 195.15"><g id="usdn"><path d="M275.5,9.15,181,103.65l94.5,94.5,94.5-94.5Zm-85.05,94.5L275.5,18.6l85.05,85.05-85.05,85Z" transform="translate(-35.68 -3)" style="fill:#00f5ff"/><path d="M307,118.67a21,21,0,0,1-7.13,16Q292.73,141.28,279,142v14.13H272.9v-14a54.22,54.22,0,0,1-16.63-3.5A33.26,33.26,0,0,1,244,131l3.51-7a34.09,34.09,0,0,0,11.06,7,44.75,44.75,0,0,0,14.33,3.32V102A93.4,93.4,0,0,1,259,97.48a23.64,23.64,0,0,1-9.25-7q-3.68-4.6-3.68-12.22a21.11,21.11,0,0,1,6.77-15.91q6.76-6.45,20.07-7.56V40.65H279v14a50.08,50.08,0,0,1,13.36,2.27,40.2,40.2,0,0,1,11.19,5.34l-3,7.25a46,46,0,0,0-10.52-5,40.44,40.44,0,0,0-11-2.09V95a114.11,114.11,0,0,1,14.63,4.49,23.58,23.58,0,0,1,9.55,7Q307,111.06,307,118.67ZM254.88,78q0,6.39,4.66,9.71t13.36,5.65V62.64q-8.94.73-13.48,5A13.66,13.66,0,0,0,254.88,78ZM279,134.28q9.56-.74,14.39-4.79a12.91,12.91,0,0,0,4.83-10.33q0-6.63-4.95-10T279,103.56Z" transform="translate(-35.68 -3)" style="fill:#00f5ff"/><path d="M276,193.47l-89.12-89.32s19.15-14.56,41.51-20,39.2,5.49,54.17,16.84,26.22,14.22,43.89,13.2,38.66-10,38.66-10Z" transform="translate(-35.68 -3)" style="fill:#00f5ff"/><circle cx="238.82" cy="97.5" r="92.5" style="fill:none;stroke:#00f5ff;stroke-miterlimit:10;stroke-width:8px"/><path d="M299.87,134.28a21,21,0,0,0,7.13-16,26.59,26.59,0,0,0-.28-3.89c-8.11-2.62-15.52-7.31-24.13-13.83-3.68-2.8-7.49-5.58-11.47-8.09a39.14,39.14,0,0,1-11.58-5.15,11.82,11.82,0,0,1-2-1.77,50.66,50.66,0,0,0-11.09-2.86A16.58,16.58,0,0,0,249.74,90a23.67,23.67,0,0,0,9.25,7,93.4,93.4,0,0,0,13.91,4.48v32.32a44.75,44.75,0,0,1-14.33-3.32,34.09,34.09,0,0,1-11.06-7l-3.51,7a33.3,33.3,0,0,0,12.27,7.68,54,54,0,0,0,16.64,3.5v14h6V141.59q13.79-.74,20.92-7.31m-6.53-5.23q-4.84,4.06-14.39,4.8V103.13q9.3,2.33,14.27,5.65c3.3,2.21,5,5.53,4.95,10a12.88,12.88,0,0,1-4.83,10.32" transform="translate(-35.68 -3)"/></g><g id="usdc_l"><path d="M133.11,197.85a97.43,97.43,0,1,0-97.43-97.42A97.42,97.42,0,0,0,133.11,197.85Z" transform="translate(-35.68 -3)" style="fill:#2775ca"/><path d="M115.24,167.81c0,2.44-1.62,3.25-4,3.25C81.15,161.32,60,133.71,60,101.24s21.11-60.08,51.15-69.82c2.43-.82,4,.81,4,3.24v5.69a4.48,4.48,0,0,1-2.43,4.06C89.26,53.34,73,75.26,73,101.24s17,48.71,39.78,56.83a4.46,4.46,0,0,1,2.43,4.06Z" transform="translate(-35.68 -3)" style="fill:#fff"/><path d="M139.6,147.51a3.49,3.49,0,0,1-3.25,3.25h-6.49a3.49,3.49,0,0,1-3.25-3.25v-9.74c-13-1.62-19.49-8.93-21.92-19.48,0-1.63.81-3.25,2.43-3.25h7.31c1.62,0,2.44.81,3.25,2.43,1.62,5.69,4.87,10.56,15.42,10.56,8.12,0,13.81-4.06,13.81-10.56s-3.25-8.93-14.62-10.55c-17-2.44-25.17-7.31-25.17-21.11,0-10.55,8.12-18.67,19.49-20.3V55.77a3.5,3.5,0,0,1,3.25-3.25h6.49a3.5,3.5,0,0,1,3.25,3.25v9.74c9.74,1.63,16.24,7.31,17.86,16.24,0,1.63-.81,3.25-2.43,3.25h-6.5c-1.62,0-2.44-.81-3.25-2.44-1.62-5.68-5.68-8.12-13-8.12-8.12,0-12.18,4.06-12.18,9.75s2.44,8.93,14.62,10.55c17.05,2.44,25.17,7.31,25.17,21.11,0,10.55-8.12,19.49-20.3,21.92Z" transform="translate(-35.68 -3)" style="fill:#fff"/><path d="M155,171.06c-2.44.81-4.06-.81-4.06-3.25v-5.68a4.47,4.47,0,0,1,2.43-4.06c23.55-8.93,39.79-30.85,39.79-56.83S176.14,52.53,153.4,44.41A4.48,4.48,0,0,1,151,40.35V34.66c0-2.43,1.62-3.24,4.06-3.24,29.22,9.74,51.14,37.34,51.14,69.82S185.07,161.32,155,171.06Z" transform="translate(-35.68 -3)" style="fill:#fff"/></g></svg>