<svg id="Layer_1" data-name="Layer 1" xmlns="http://www.w3.org/2000/svg" xmlns:xlink="http://www.w3.org/1999/xlink" viewBox="0 0 335.32 195"><defs><linearGradient id="linear-gradient" x1="275" y1="225.48" x2="275" y2="-16.37" gradientTransform="matrix(1, 0, 0, -1, -35.68, 199)" gradientUnits="userSpaceOnUse"><stop offset="0" stop-color="#f9a606"/><stop offset="1" stop-color="#fbcc5f"/></linearGradient></defs><g id="dai"><ellipse cx="239.32" cy="98" rx="96" ry="97" style="fill:url(#linear-gradient)"/><path d="M238.69,54.75h36.54c22.23,0,39.08,12,45.35,29.33H332V94.59h-9a47,47,0,0,1,.27,5.07v.26a46.66,46.66,0,0,1-.34,5.7H332v10.5h-11.6c-6.43,17.15-23.15,29-45.13,29H238.69v-29H226v-10.5h12.69v-11H226V84.08h12.69Zm10.22,61.37v19.55h26.32c16.25,0,28.32-7.83,33.94-19.55Zm63.39-10.5H248.91v-11h63.4a38.79,38.79,0,0,1,.36,5.33v.26A40.51,40.51,0,0,1,312.3,105.62ZM275.23,64.16c16.33,0,28.43,8,34,19.92H248.91V64.16Z" transform="translate(-35.68 -3)" style="fill:#fff;fill-rule:evenodd"/></g><g id="usdc_l"><path d="M133.11,197.85a97.43,97.43,0,1,0-97.43-97.42A97.42,97.42,0,0,0,133.11,197.85Z" transform="translate(-35.68 -3)" style="fill:#2775ca"/><path d="M115.24,167.81c0,2.44-1.62,3.25-4,3.25C81.15,161.32,60,133.71,60,101.24s21.11-60.08,51.15-69.82c2.43-.82,4,.81,4,3.24v5.69a4.48,4.48,0,0,1-2.43,4.06C89.26,53.34,73,75.26,73,101.24s17,48.71,39.78,56.83a4.46,4.46,0,0,1,2.43,4.06Z" transform="translate(-35.68 -3)" style="fill:#fff"/><path d="M139.6,147.51a3.49,3.49,0,0,1-3.25,3.25h-6.49a3.49,3.49,0,0,1-3.25-3.25v-9.74c-13-1.62-19.49-8.93-21.92-19.48,0-1.63.81-3.25,2.43-3.25h7.31c1.62,0,2.44.81,3.25,2.43,1.62,5.69,4.87,10.56,15.42,10.56,8.12,0,13.81-4.06,13.81-10.56s-3.25-8.93-14.62-10.55c-17-2.44-25.17-7.31-25.17-21.11,0-10.55,8.12-18.67,19.49-20.3V55.77a3.5,3.5,0,0,1,3.25-3.25h6.49a3.5,3.5,0,0,1,3.25,3.25v9.74c9.74,1.63,16.24,7.31,17.86,16.24,0,1.63-.81,3.25-2.43,3.25h-6.5c-1.62,0-2.44-.81-3.25-2.44-1.62-5.68-5.68-8.12-13-8.12-8.12,0-12.18,4.06-12.18,9.75s2.44,8.93,14.62,10.55c17.05,2.44,25.17,7.31,25.17,21.11,0,10.55-8.12,19.49-20.3,21.92Z" transform="translate(-35.68 -3)" style="fill:#fff"/><path d="M155,171.06c-2.44.81-4.06-.81-4.06-3.25v-5.68a4.47,4.47,0,0,1,2.43-4.06c23.55-8.93,39.79-30.85,39.79-56.83S176.14,52.53,153.4,44.41A4.48,4.48,0,0,1,151,40.35V34.66c0-2.43,1.62-3.24,4.06-3.24,29.22,9.74,51.14,37.34,51.14,69.82S185.07,161.32,155,171.06Z" transform="translate(-35.68 -3)" style="fill:#fff"/></g></svg>