<svg xmlns="http://www.w3.org/2000/svg" viewBox="0 0 73.85 73.85"><defs><style>.cls-1{fill:#4e26ff;}.cls-2{fill:#fff;}</style></defs><g id="Layer_2" data-name="Layer 2"><g id="Layer_1-2" data-name="Layer 1"><circle class="cls-1" cx="36.93" cy="36.93" r="36.93"/><path class="cls-2" d="M46.17,34.38H39.11V27.84H34.74v6.54H28.18c-1.81,0-3.35-2.22-3.35-4.85s1.54-4.85,3.35-4.85H50.92V19.82H39.11V15.11H34.74v4.71H28.18c-4.53,0-8.21,4.36-8.21,9.71s3.68,9.72,8.21,9.72h6.56V46h4.37V39.25h7.06c1.82,0,3.35,2.22,3.35,4.85v.31c0,2.63-1.53,4.85-3.35,4.85H21.8v4.87H34.74v4.61h4.37V54.13h7.06c4.53,0,8.22-4.36,8.22-9.72V44.1C54.39,38.74,50.7,34.38,46.17,34.38Z"/></g></g></svg>