<svg id="Layer_1" data-name="Layer 1" xmlns="http://www.w3.org/2000/svg" xmlns:xlink="http://www.w3.org/1999/xlink" viewBox="0 0 333 194.15"><defs><linearGradient id="linear-gradient" x1="275" y1="225.48" x2="275" y2="-16.37" gradientTransform="matrix(1, 0, 0, -1, -38, 198)" gradientUnits="userSpaceOnUse"><stop offset="0" stop-color="#f9a606"/><stop offset="1" stop-color="#fbcc5f"/></linearGradient></defs><g id="dai"><ellipse cx="237" cy="97" rx="96" ry="97" style="fill:url(#linear-gradient)"/><path d="M238.69,54.75h36.54c22.23,0,39.08,12,45.35,29.33H332V94.59h-9a47,47,0,0,1,.27,5.07v.26a46.66,46.66,0,0,1-.34,5.7H332v10.5h-11.6c-6.43,17.15-23.15,29-45.13,29H238.69v-29H226v-10.5h12.69v-11H226V84.08h12.69Zm10.22,61.37v19.55h26.32c16.25,0,28.32-7.83,33.94-19.55Zm63.39-10.5H248.91v-11h63.4a38.79,38.79,0,0,1,.36,5.33v.26A40.51,40.51,0,0,1,312.3,105.62ZM275.23,64.16c16.33,0,28.43,8,34,19.92H248.91V64.16Z" transform="translate(-38 -4)" style="fill:#fff;fill-rule:evenodd"/></g><g id="usdn"><path d="M135.5,9.15,41,103.65l94.5,94.5,94.5-94.5Zm-85,94.5L135.5,18.6l85.05,85.05-85.05,85Z" transform="translate(-38 -4)" style="fill:#00f5ff"/><path d="M167,118.67a21,21,0,0,1-7.13,16Q152.73,141.28,139,142v14.13h-6v-14a54.22,54.22,0,0,1-16.63-3.5A33.26,33.26,0,0,1,104,131l3.51-7a34.09,34.09,0,0,0,11.06,7,44.75,44.75,0,0,0,14.33,3.32V102A93.4,93.4,0,0,1,119,97.48a23.64,23.64,0,0,1-9.25-7q-3.67-4.6-3.68-12.22a21.11,21.11,0,0,1,6.77-15.91q6.77-6.45,20.07-7.56V40.65h6v14a50.08,50.08,0,0,1,13.36,2.27,40.2,40.2,0,0,1,11.19,5.34l-3,7.25a46,46,0,0,0-10.52-5,40.44,40.44,0,0,0-11-2.09V95a114.11,114.11,0,0,1,14.63,4.49,23.58,23.58,0,0,1,9.55,7Q167,111.06,167,118.67ZM114.88,78q0,6.39,4.66,9.71t13.36,5.65V62.64q-8.94.73-13.48,5A13.66,13.66,0,0,0,114.88,78ZM139,134.28q9.56-.74,14.39-4.79a12.91,12.91,0,0,0,4.83-10.33q0-6.63-4.95-10T139,103.56Z" transform="translate(-38 -4)" style="fill:#00f5ff"/><path d="M136,193.47,46.91,104.15s19.15-14.56,41.51-20,39.2,5.49,54.17,16.84,26.22,14.22,43.89,13.2,38.66-10,38.66-10Z" transform="translate(-38 -4)" style="fill:#00f5ff"/><circle cx="96.5" cy="96.5" r="92.5" style="fill:none;stroke:#00f5ff;stroke-miterlimit:10;stroke-width:8px"/><path d="M159.87,134.28a21,21,0,0,0,7.13-16,26.59,26.59,0,0,0-.28-3.89c-8.11-2.62-15.52-7.31-24.13-13.83-3.68-2.8-7.49-5.58-11.47-8.09a39.14,39.14,0,0,1-11.58-5.15,11.82,11.82,0,0,1-2-1.77,50.66,50.66,0,0,0-11.09-2.86A16.58,16.58,0,0,0,109.74,90a23.67,23.67,0,0,0,9.25,7,93.4,93.4,0,0,0,13.91,4.48v32.32a44.75,44.75,0,0,1-14.33-3.32,34.09,34.09,0,0,1-11.06-7l-3.51,7a33.3,33.3,0,0,0,12.27,7.68,54,54,0,0,0,16.64,3.5v14h6V141.59q13.78-.74,20.92-7.31m-6.53-5.23q-4.84,4.06-14.39,4.8V103.13q9.3,2.33,14.27,5.65c3.3,2.21,5,5.53,4.95,10a12.88,12.88,0,0,1-4.83,10.32" transform="translate(-38 -4)"/></g></svg>