<svg viewBox="0 0 24 24" class="css-ltho72"><g><path fill-rule="evenodd" clip-rule="evenodd" d="M12 0L23.4495 11.4495C20.9997 12.8519 19.0977 13.2097 17.4959 13.0934C15.6875 12.9621 14.1602 12.2276 12.4737 11.4166L12.3834 11.3731C11.6665 11.0286 10.9194 10.6719 10.1252 10.3722C9.7081 10.0224 9.54082 9.5896 9.54082 9.09344C9.54082 8.23112 10.2287 7.41323 11.5356 7.23356V7.2265H12.5762V7.22386C13.7403 7.37522 14.5681 8.07856 14.6802 9.2804H16.1807C16.1203 7.3129 14.6504 6.01308 12.6585 5.82612V4.28594H11.4585V5.83502C9.41482 6.02198 8.04034 7.28618 8.04034 9.20032C8.04034 9.40808 8.05658 9.6052 8.08874 9.792C7.61718 9.7056 7.12823 9.65144 6.61934 9.64024C4.83839 9.60096 2.88889 10.0838 0.61675 11.3833L12 0ZM17.3718 14.8031C18.7575 14.9038 20.2517 14.7086 21.9265 14.0735L12 24L1.09226 13.0922C3.32884 11.7389 5.09088 11.3212 6.58152 11.3541C8.39634 11.3942 9.93338 12.0974 11.6406 12.9182L11.8251 13.007C12.7301 13.4428 13.6885 13.9043 14.7316 14.2536C14.7803 14.4299 14.8009 14.6205 14.8009 14.8269C14.8009 15.8507 14.1801 16.6609 12.5762 16.7855V16.7837H11.5356V16.7759C10.0479 16.6053 9.38538 15.7602 9.23034 14.6488H7.72994C7.7903 16.7232 9.40618 17.9785 11.4585 18.1654V19.7145H12.6585V18.1743C14.6935 18.0141 16.3014 16.8478 16.3014 14.7022C16.3014 14.6897 16.3013 14.6773 16.3012 14.665C16.6483 14.7291 17.0049 14.7766 17.3718 14.8031ZM0 12H1.37506e-05H1.37503e-05H0Z" fill="#0ED2DA"></path></g></svg>