<svg id="Layer_1" data-name="Layer 1" xmlns="http://www.w3.org/2000/svg" viewBox="0 0 329.87 195"><path d="M267.93,197.15a97.08,97.08,0,1,0-97.08-97.08A97.07,97.07,0,0,0,267.93,197.15Z" transform="translate(-35.13 -3)" style="fill:#2775ca"/><path d="M247.9,164.68c0,2.39-1.59,3.19-4,3.19-29.47-9.56-50.18-36.64-50.18-68.5s20.71-58.94,50.18-68.49c2.39-.8,4,.79,4,3.18v5.58a4.37,4.37,0,0,1-2.39,4c-23.09,8.76-39,30.26-39,55.75s16.72,47.79,39,55.75a4.38,4.38,0,0,1,2.39,4Z" transform="translate(-35.13 -3)" style="fill:#fff"/><path d="M271.8,144.77a3.43,3.43,0,0,1-3.19,3.18h-6.37a3.42,3.42,0,0,1-3.19-3.18v-9.56c-12.74-1.59-19.11-8.76-21.5-19.11,0-1.6.79-3.19,2.39-3.19h7.17c1.59,0,2.38.8,3.18,2.39,1.59,5.57,4.78,10.35,15.13,10.35,8,0,13.54-4,13.54-10.35s-3.18-8.76-14.33-10.35c-16.73-2.39-24.69-7.17-24.69-20.71,0-10.36,8-18.32,19.11-19.91V54.77a3.43,3.43,0,0,1,3.19-3.19h6.37a3.44,3.44,0,0,1,3.19,3.19v9.56c9.55,1.59,15.92,7.16,17.52,15.93,0,1.59-.8,3.18-2.39,3.18h-6.37c-1.6,0-2.39-.8-3.19-2.39-1.59-5.57-5.57-8-12.74-8-8,0-11.95,4-11.95,9.55S255.07,91.41,267,93c16.72,2.39,24.69,7.17,24.69,20.71,0,10.35-8,19.11-19.91,21.5Z" transform="translate(-35.13 -3)" style="fill:#fff"/><path d="M286.93,167.87c-2.39.79-4-.8-4-3.19v-5.57a4.38,4.38,0,0,1,2.39-4c23.09-8.76,39-30.26,39-55.75s-16.72-47.79-39-55.75a4.37,4.37,0,0,1-2.39-4V34.06c0-2.39,1.59-3.18,4-3.18,28.67,9.55,50.18,36.63,50.18,68.49S316.4,158.31,286.93,167.87Z" transform="translate(-35.13 -3)" style="fill:#fff"/><circle cx="97.5" cy="97.5" r="97.5" style="fill:#26a17b"/><path d="M144.34,108.93h0c-.67,0-4.13.25-11.83.25-6.16,0-10.49-.18-12-.25h0c-23.7-1-41.38-5.16-41.38-10.1S96.8,89.77,120.5,88.71v16.12c1.54.11,6,.37,12.11.37,7.35,0,11-.31,11.73-.37V88.73c23.64,1,41.29,5.18,41.29,10.1s-17.65,9-41.29,10.1m0-21.88V72.63h33v-22H87.5v22h33V87c-26.82,1.24-47,6.55-47,12.91s20.16,11.67,47,12.91v46.2h23.84V112.85c26.77-1.23,46.89-6.54,46.89-12.9s-20.12-11.66-46.89-12.9" transform="translate(-35.13 -3)" style="fill:#fff;fill-rule:evenodd"/></svg>