<svg id="Layer_1" data-name="Layer 1" xmlns="http://www.w3.org/2000/svg" xmlns:xlink="http://www.w3.org/1999/xlink" viewBox="0 0 335.87 195"><defs><linearGradient id="linear-gradient" x1="275" y1="225.48" x2="275" y2="-16.37" gradientTransform="matrix(1, 0, 0, -1, -35.13, 199)" gradientUnits="userSpaceOnUse"><stop offset="0" stop-color="#f9a606"/><stop offset="1" stop-color="#fbcc5f"/></linearGradient></defs><ellipse cx="239.87" cy="98" rx="96" ry="97" style="fill:url(#linear-gradient)"/><path d="M238.69,54.75h36.54c22.23,0,39.08,12,45.35,29.33H332V94.59h-9a47,47,0,0,1,.27,5.07v.26a46.66,46.66,0,0,1-.34,5.7H332v10.5h-11.6c-6.43,17.15-23.15,29-45.13,29H238.69v-29H226v-10.5h12.69v-11H226V84.08h12.69Zm10.22,61.37v19.55h26.32c16.25,0,28.32-7.83,33.94-19.55Zm63.39-10.5H248.91v-11h63.4a38.79,38.79,0,0,1,.36,5.33v.26A40.51,40.51,0,0,1,312.3,105.62ZM275.23,64.16c16.33,0,28.43,8,34,19.92H248.91V64.16Z" transform="translate(-35.13 -3)" style="fill:#fff;fill-rule:evenodd"/><g id="usdt"><circle cx="97.5" cy="97.5" r="97.5" style="fill:#26a17b"/><path d="M144.34,108.93h0c-.67,0-4.13.25-11.83.25-6.16,0-10.49-.18-12-.25h0c-23.7-1-41.38-5.16-41.38-10.1S96.8,89.77,120.5,88.71v16.12c1.54.11,6,.37,12.11.37,7.35,0,11-.31,11.73-.37V88.73c23.64,1,41.29,5.18,41.29,10.1s-17.65,9-41.29,10.1m0-21.88V72.63h33v-22H87.5v22h33V87c-26.82,1.24-47,6.55-47,12.91s20.16,11.67,47,12.91v46.2h23.84V112.85c26.77-1.23,46.89-6.54,46.89-12.9s-20.12-11.66-46.89-12.9" transform="translate(-35.13 -3)" style="fill:#fff;fill-rule:evenodd"/></g></svg>