<svg id="Layer_1" data-name="Layer 1" xmlns="http://www.w3.org/2000/svg" viewBox="0 0 334.32 195"><path d="M237.42,194.91A96.91,96.91,0,1,0,140.5,98,96.67,96.67,0,0,0,237.42,194.91Z" style="fill:#2ef2ff"/><path d="M237.59,173l-75-75,75-75,75,75ZM173.1,98l64.49,64.5L302.07,98,237.59,33.5Z" style="fill:#3000ff"/><path d="M297.67,91.6c-5.7,5.69-13.35,8.74-22.75,9-9,.28-19.28-2.21-30.89-6.55-1.26-.51-2.53-1-3.79-1.45-1.67-.66-3.33-1.29-5-1.88-7.39-2.91-10.91-5.23-10.91-9.83,0-7.92,9.08-10,13.89-10a18.71,18.71,0,0,1,10.27,2.6c2.88,1.93,4.29,4.83,4.29,8.89h8.75c0-8.84-4.46-13.67-8.19-16.16a25.47,25.47,0,0,0-11.68-3.89V54.87h-6.87V62.4c-10,1.17-19.18,7.5-19.18,18.55a16.42,16.42,0,0,0,.75,5,64.52,64.52,0,0,0-14.49-.66c-12.64,1-23.27,5.4-30.68,12.83l6.48,6.48c5.76-5.77,14.61-9.39,24.9-10.16,9.22-.7,20.14,1.36,29.62,4.6,1.17.44,2.37.89,3.54,1.31.49.19,1,.35,1.45.54,1.6.66,3.17,1.27,4.72,1.85,6.73,2.89,10.67,6,10.67,12.36a8.4,8.4,0,0,1-4.06,7.27,18.19,18.19,0,0,1-9.83,2.79c-4.15,0-7.8-.91-10.31-2.6-2.86-1.9-4.25-4.81-4.25-8.89h-8.75c0,8.87,4.41,13.68,8.14,16.16a25.58,25.58,0,0,0,11.28,3.87v6.83h6.87v-6.78a26.15,26.15,0,0,0,11.75-4.13,17.19,17.19,0,0,0,7.9-14.52,20.34,20.34,0,0,0-1.07-6.71,62.73,62.73,0,0,0,13.15,1.48c.61,0,1.24,0,1.85,0,11.8-.38,21.46-4.39,28.87-11.77Z" style="fill:#3000ff"/><g id="usdt"><circle cx="97.5" cy="97.5" r="97.5" style="fill:#26a17b"/><path d="M109.2,105.9h0c-.7,0-4.1.3-11.8.3-6.2,0-10.5-.2-12-.3h0c-23.7-1-41.4-5.2-41.4-10.1s17.7-9.1,41.4-10.1v16.1c1.5.1,6,.4,12.1.4a114.25,114.25,0,0,0,11.7-.4V85.7c23.6,1,41.3,5.2,41.3,10.1s-17.6,9-41.3,10.1m0-21.8V69.6h33v-22H52.4v22h33V84c-26.8,1.2-47,6.6-47,12.9s20.2,11.7,47,12.9V156h23.8V109.8c26.8-1.2,46.9-6.5,46.9-12.9S136,85.3,109.2,84.1" style="fill:#fff;fill-rule:evenodd"/></g></svg>