<svg width="166" height="155" viewBox="0 0 166 155" fill="none" xmlns="http://www.w3.org/2000/svg">
<g opacity="0.14">
<path d="M83 155C128.84 155 166 117.84 166 72C166 26.1604 128.84 -11 83 -11C37.1604 -11 0 26.1604 0 72C0 117.84 37.1604 155 83 155Z" fill="#EAA900"/>
<path d="M83.0319 58.2928L70.1162 71.2085L83.0319 84.1242L95.9475 71.2085L83.0319 58.2928Z" fill="white"/>
<path d="M38.8532 58.3495L25.9375 71.2651L38.8532 84.1808L51.7688 71.2651L38.8532 58.3495Z" fill="white"/>
<path d="M116.286 49.6696L83.0435 14.9375L49.7134 49.6696L62.1031 62.4896L83.0435 40.6684L103.984 62.4896L116.286 49.6696Z" fill="white"/>
<path d="M49.7134 94.3303L83.0435 129.062L116.286 94.3303L103.984 81.5104L83.0435 103.332L62.1031 81.5104L49.7134 94.3303Z" fill="white"/>
<path d="M127.147 58.3013L114.231 71.2169L127.147 84.1326L140.063 71.2169L127.147 58.3013Z" fill="white"/>
</g>
</svg>
