<svg width="16" height="16" viewBox="0 0 16 16" fill="none" xmlns="http://www.w3.org/2000/svg">
<path d="M13 0H3C1.34315 0 0 1.34315 0 3V13C0 14.6569 1.34315 16 3 16H13C14.6569 16 16 14.6569 16 13V3C16 1.34315 14.6569 0 13 0Z" fill="#F08B04"/>
<path d="M8.99063 5.13737C8.9968 5.09246 8.99998 5.0466 8.99998 5C8.99998 4.44772 8.55227 4 7.99999 4C7.4477 4 6.99999 4.44772 6.99999 5C6.99999 5.0466 7.00318 5.09246 7.00935 5.13737C6.37329 5.32997 5.90333 5.71309 5.58068 6.2099C5.13087 6.90251 5.00001 7.76386 5.00001 8.5C5.00001 9.05213 4.80865 9.27937 4.68538 9.37917C4.61422 9.43678 4.54305 9.4697 4.49134 9.48777C4.46582 9.49669 4.44651 9.50147 4.43652 9.50364L4.43087 9.5048C4.1732 9.54069 3.98539 9.76884 4.00089 10.0297C4.01659 10.2938 4.23539 10.5 4.50001 10.5H11.5C11.7646 10.5 11.9834 10.2938 11.9991 10.0297C12.0146 9.76884 11.8268 9.54069 11.5691 9.5048L11.5635 9.50364C11.5535 9.50147 11.5342 9.49669 11.5087 9.48777C11.457 9.4697 11.3858 9.43678 11.3146 9.37917C11.1914 9.27937 11 9.05213 11 8.5C11 7.76386 10.8691 6.90251 10.4193 6.2099C10.0967 5.71309 9.6267 5.32996 8.99063 5.13737ZM11.5691 9.5048L11.5703 9.50502L11.5672 9.50455L11.5691 9.5048ZM11.5605 9.50367L11.5672 9.50455L11.5635 9.50364L11.5617 9.50382L11.5605 9.50367Z" fill="white"/>
<path d="M7.13378 11.5C7.0487 11.3529 7 11.1821 7 11H8.99999C8.99999 11.1821 8.9513 11.3529 8.86621 11.5C8.69331 11.7989 8.37014 12 8 12C7.62986 12 7.30669 11.7989 7.13378 11.5Z" fill="white"/>
</svg>
