<svg width="551" height="388" viewBox="0 0 551 388" fill="none" xmlns="http://www.w3.org/2000/svg">
<g clip-path="url(#clip0)">
<path d="M551 6.10352e-05C443.522 5.16391e-05 356.393 86.8568 356.393 194C356.393 301.143 443.522 388 551 388L551 6.10352e-05Z" fill="#4E26FF"/>
<path opacity="0.4" d="M429.371 4.57764e-05C321.893 3.63803e-05 234.764 86.8568 234.764 194C234.764 301.143 321.893 388 429.371 388L429.371 4.57764e-05Z" fill="#4E26FF"/>
<path opacity="0.2" d="M317.677 9.15527e-05C210.199 8.21567e-05 123.07 86.8568 123.07 194C123.07 301.143 210.198 388 317.677 388L317.677 9.15527e-05Z" fill="#4E26FF"/>
<path opacity="0.1" d="M194.414 9.15527e-05C86.9362 8.21567e-05 -0.192204 86.8568 -0.192213 194C-0.192223 301.143 86.9361 388 194.414 388L194.414 9.15527e-05Z" fill="#4E26FF"/>
</g>
<defs>
<clipPath id="clip0">
<rect width="551" height="388" fill="white" transform="translate(551 388) rotate(-180)"/>
</clipPath>
</defs>
</svg>
