<?xml version="1.0" encoding="utf-8"?>
<!-- Generator: Adobe Illustrator 24.1.2, SVG Export Plug-In . SVG Version: 6.00 Build 0)  -->
<svg version="1.1" id="Layer_1" xmlns="http://www.w3.org/2000/svg" xmlns:xlink="http://www.w3.org/1999/xlink" x="0px" y="0px"
	 viewBox="0 0 195 195" style="enable-background:new 0 0 195 195;" xml:space="preserve">
<style type="text/css">
	.st0{display:none;fill:#A3B2CF;stroke:#A3B2CF;stroke-miterlimit:10;}
	.st1{fill:#A3B2CF;stroke:#A3B2CF;stroke-miterlimit:10;}
</style>
<g id="Page-1">
	<g id="Monogram">
		<rect id="Rectangle-path" x="17.6" y="14.2" class="st0" width="165.1" height="172.7"/>
		<path id="Shape" class="st1" d="M37,54.1c0.2-2.4-0.6-4.7-2.1-6.3L19.7,26.2V23H67l36.6,94.3L135.8,23H181v3.2l-13,14.7
			c-1.1,1-1.7,2.7-1.4,4.3v107.9c-0.2,1.6,0.3,3.3,1.4,4.3l12.7,14.7v3.2h-64.1v-3.2l13.2-15c1.3-1.5,1.3-2,1.3-4.3V65.6L94.4,175
			h-5L46.7,65.6v73.3c-0.4,3.1,0.5,6.2,2.4,8.4l17.2,24.4v3.2H17.6v-3.2l17.2-24.4c1.8-2.2,2.7-5.4,2.2-8.4V54.1z"/>
	</g>
</g>
</svg>
