<svg xmlns="http://www.w3.org/2000/svg" xmlns:xlink="http://www.w3.org/1999/xlink" viewBox="0 0 251.64 46.68"><defs><style>.cls-1d{}.cls-2d{clip-path:url(#clip-path);}.cls-3d,.cls-4d{fill:#f9a606;}.cls-4d{fill-rule:evenodd;}.cls-5d{fill:#1aab9b;}.cls-6d{fill:#9fafb9;}</style><clipPath id="clip-path" transform="translate(-2.4 -23.32)"><rect class="cls-1d" width="256.99" height="80"/></clipPath></defs><g id="Layer_2" data-name="Layer 2"><g id="Layer_1-2" data-name="Layer 1"><g class="cls-2d"><path class="cls-3d" d="M2.4,39.47H12.9V70h8.92V23.32H13.93c0,7.56-4.46,9.49-11.53,9.49Z" transform="translate(-2.4 -23.32)"/><path class="cls-4d" d="M65.07,28.37c8.34,0,14.53,4.11,17.38,10.2H51.63V28.37ZM84,49.59H51.63V43.94H84a20.41,20.41,0,0,1,.18,2.73v.13A21.31,21.31,0,0,1,84,49.59ZM51.63,55V65H65.07c8.3,0,14.47-4,17.34-10ZM46.41,23.55H65.07c11.36,0,20,6.12,23.17,15h5.81v5.37H89.46a24.72,24.72,0,0,1,.14,2.6v.13a25.45,25.45,0,0,1-.17,2.92h4.62V55H88.13C84.84,63.74,76.3,69.8,65.07,69.8H46.41V55H39.92V49.59h6.49V43.94H39.92V38.57h6.49Z" transform="translate(-2.4 -23.32)"/><path class="cls-5d" d="M234.63,39.47h10.49V70H254V23.32h-7.89c0,7.56-4.46,9.49-11.52,9.49Z" transform="translate(-2.4 -23.32)" fill="#1aab9b"/><path class="cls-5d" d="M217.36,34.72a6.85,6.85,0,0,0-3.3-2.57,11.24,11.24,0,0,0-4.3-.84,14,14,0,0,0-3.23.37,10.51,10.51,0,0,0-2.89,1.1,6,6,0,0,0-2,1.94,5.23,5.23,0,0,0-.77,2.84,5.76,5.76,0,0,0,.42,2.26,5.14,5.14,0,0,0,1.47,1.74A11.4,11.4,0,0,0,205.47,43a39.78,39.78,0,0,0,4.18,1.36q2.41.69,4.65,1.48a15.73,15.73,0,0,1,4,2,8.74,8.74,0,0,1,3.83,7.57,9.15,9.15,0,0,1-1.24,4.84,10.7,10.7,0,0,1-3.29,3.41,14.5,14.5,0,0,1-4.66,1.95,22,22,0,0,1-5.47.68,20.46,20.46,0,0,1-3.65-.32,18.73,18.73,0,0,1-3.53-.84,16.88,16.88,0,0,1-3.12-1.57,10.44,10.44,0,0,1-2.54-2.42l4.24-3.1a8.43,8.43,0,0,0,3.77,3.1,12.71,12.71,0,0,0,5.12,1.05,12.41,12.41,0,0,0,3.18-.42,10.69,10.69,0,0,0,2.95-1.21,7.41,7.41,0,0,0,2.12-2,4.87,4.87,0,0,0,.82-2.78,4.87,4.87,0,0,0-2.65-4.68,16.07,16.07,0,0,0-3.41-1.42l-4.83-1.47a36.64,36.64,0,0,1-4.12-1.42,14.42,14.42,0,0,1-3.3-2,9.49,9.49,0,0,1-2.18-2.84,9.56,9.56,0,0,1-.77-4,9.09,9.09,0,0,1,1.18-4.68,10.15,10.15,0,0,1,3.18-3.31,15,15,0,0,1,4.54-2.05,20.4,20.4,0,0,1,5.29-.68,19.39,19.39,0,0,1,6.42,1,12.41,12.41,0,0,1,5.24,3.36Z" transform="translate(-2.4 -23.32)" fill="#1aab9b"/><rect class="cls-5d" x="203.76" y="0.43" width="4.43" height="46.21"/><path class="cls-6d" d="M126.59,15.76h32.32a.87.87,0,0,1,.87.87v3.25a.88.88,0,0,1-.87.88H126.59a.87.87,0,0,1-.87-.87V16.64A.88.88,0,0,1,126.59,15.76Z"/><path class="cls-6d" d="M129.14,51.52h32.32a.82.82,0,0,1,.61.25.85.85,0,0,1,.26.62v3.25a.85.85,0,0,1-.26.62.83.83,0,0,1-.61.26H129.14a.89.89,0,0,1-.88-.88V52.39a.85.85,0,0,1,.26-.62A.84.84,0,0,1,129.14,51.52Z" transform="translate(-2.4 -23.32)"/></g></g></g></svg>