<svg width="671" height="598" viewBox="0 0 671 598" fill="none" xmlns="http://www.w3.org/2000/svg">
<g opacity="0.4" filter="url(#filter0_d)">
<path d="M226.747 115.856L44 298.603L226.747 481.35L409.494 298.603L226.747 115.856Z" fill="#343840"/>
</g>
<g filter="url(#filter1_d)">
<path d="M375.396 44.0001L120.793 298.603L375.396 553.207L630 298.603L375.396 44.0001Z" fill="#343840"/>
</g>
<g filter="url(#filter2_d)">
<path d="M386.652 111.995L199.889 298.758L386.652 485.521L573.415 298.758L386.652 111.995Z" fill="#343840"/>
</g>
<path d="M386.654 272.914L360.81 298.758L386.654 324.601L412.497 298.758L386.654 272.914Z" fill="#FAB700"/>
<path d="M298.253 273.028L272.41 298.871L298.253 324.715L324.097 298.871L298.253 273.028Z" fill="#FAB700"/>
<path d="M213.739 348.281L208.897 353.122L213.739 357.963L218.58 353.122L213.739 348.281Z" fill="#FAB700"/>
<path d="M200.006 348.281L195.165 353.122L200.006 357.963L204.847 353.122L200.006 348.281Z" fill="#FAB700"/>
<path d="M186.274 348.281L181.433 353.122L186.274 357.963L191.115 353.122L186.274 348.281Z" fill="#FAB700"/>
<g opacity="0.3">
<path d="M253.579 271.604L243.475 261.5L253.579 251.395L263.684 261.5L253.579 271.604Z" stroke="white"/>
<path d="M222.912 271.604L212.808 261.5L222.912 251.395L233.017 261.5L222.912 271.604Z" stroke="white"/>
<path d="M192.244 271.604L182.14 261.5L192.244 251.395L202.349 261.5L192.244 271.604Z" stroke="white"/>
</g>
<path d="M456.311 255.101L386.686 185.293L316.878 255.101L342.828 280.868L386.686 237.009L430.544 280.868L456.311 255.101Z" fill="#FAB700"/>
<path d="M316.878 344.279L386.686 414.087L456.311 344.279L430.544 318.513L386.686 362.371L342.828 318.513L316.878 344.279Z" fill="#FAB700"/>
<path d="M474.923 272.931L449.08 298.774L474.923 324.618L500.767 298.774L474.923 272.931Z" fill="#FAB700"/>
<defs>
<filter id="filter0_d" x="0" y="71.8563" width="453.494" height="453.494" filterUnits="userSpaceOnUse" color-interpolation-filters="sRGB">
<feFlood flood-opacity="0" result="BackgroundImageFix"/>
<feColorMatrix in="SourceAlpha" type="matrix" values="0 0 0 0 0 0 0 0 0 0 0 0 0 0 0 0 0 0 127 0"/>
<feOffset/>
<feGaussianBlur stdDeviation="22"/>
<feColorMatrix type="matrix" values="0 0 0 0 0 0 0 0 0 0 0 0 0 0 0 0 0 0 0.45 0"/>
<feBlend mode="normal" in2="BackgroundImageFix" result="effect1_dropShadow"/>
<feBlend mode="normal" in="SourceGraphic" in2="effect1_dropShadow" result="shape"/>
</filter>
<filter id="filter1_d" x="73.793" y="0" width="597.207" height="597.207" filterUnits="userSpaceOnUse" color-interpolation-filters="sRGB">
<feFlood flood-opacity="0" result="BackgroundImageFix"/>
<feColorMatrix in="SourceAlpha" type="matrix" values="0 0 0 0 0 0 0 0 0 0 0 0 0 0 0 0 0 0 127 0"/>
<feOffset dx="-3"/>
<feGaussianBlur stdDeviation="22"/>
<feColorMatrix type="matrix" values="0 0 0 0 0 0 0 0 0 0 0 0 0 0 0 0 0 0 0.45 0"/>
<feBlend mode="normal" in2="BackgroundImageFix" result="effect1_dropShadow"/>
<feBlend mode="normal" in="SourceGraphic" in2="effect1_dropShadow" result="shape"/>
</filter>
<filter id="filter2_d" x="136.889" y="61.9946" width="473.526" height="473.526" filterUnits="userSpaceOnUse" color-interpolation-filters="sRGB">
<feFlood flood-opacity="0" result="BackgroundImageFix"/>
<feColorMatrix in="SourceAlpha" type="matrix" values="0 0 0 0 0 0 0 0 0 0 0 0 0 0 0 0 0 0 127 0"/>
<feOffset dx="-13"/>
<feGaussianBlur stdDeviation="25"/>
<feColorMatrix type="matrix" values="0 0 0 0 0 0 0 0 0 0 0 0 0 0 0 0 0 0 0.42 0"/>
<feBlend mode="normal" in2="BackgroundImageFix" result="effect1_dropShadow"/>
<feBlend mode="normal" in="SourceGraphic" in2="effect1_dropShadow" result="shape"/>
</filter>
</defs>
</svg>
