<svg width="495" height="495" viewBox="0 0 495 495" fill="none" xmlns="http://www.w3.org/2000/svg">
<circle cx="247.5" cy="247.5" r="247.5" fill="#0E005A" fill-opacity="0.2"/>
<circle cx="247.5" cy="247.5" r="163.5" fill="#0E005A" fill-opacity="0.3"/>
<circle cx="247.5" cy="247.5" r="96.5" fill="#0E005A" fill-opacity="0.4"/>
<g clip-path="url(#clip0)">
<path d="M283.196 258.724C285.849 256.759 281.618 246.549 273.745 235.917C265.873 225.287 257.341 218.26 254.688 220.225C254.461 220.392 249.469 224.089 249.242 224.257C246.589 226.222 250.821 236.432 258.693 247.063C266.565 257.695 275.097 264.721 277.75 262.756C277.977 262.588 282.969 258.891 283.196 258.724Z" fill="#00DCDC"/>
<path d="M254.688 220.225C254.461 220.392 249.469 224.089 249.242 224.257C246.589 226.222 250.821 236.433 258.693 247.063C266.565 257.695 275.097 264.721 277.75 262.756C277.977 262.588 282.969 258.892 283.196 258.724C280.543 260.688 272.011 253.662 264.139 243.031C256.267 232.4 252.035 222.189 254.688 220.225Z" fill="url(#paint0_linear)"/>
<path d="M273.745 235.917C265.873 225.287 257.341 218.26 254.688 220.225C252.035 222.189 256.267 232.4 264.139 243.031C272.011 253.662 280.543 260.688 283.196 258.724C285.849 256.759 281.618 246.549 273.745 235.917ZM264.356 242.87C256.839 232.719 252.799 222.97 255.332 221.095C257.866 219.219 266.012 225.927 273.528 236.078C281.045 246.229 285.085 255.978 282.552 257.854C280.019 259.729 271.872 253.021 264.356 242.87Z" fill="url(#paint1_linear)"/>
<path d="M282.552 257.854C285.084 255.978 281.044 246.228 273.528 236.078C266.011 225.927 257.865 219.219 255.332 221.095C254.762 221.516 254.526 222.337 254.586 223.469C254.7 223.252 254.847 223.073 255.031 222.937C257.46 221.138 265.175 227.441 272.264 237.014C279.352 246.587 283.13 255.806 280.702 257.604C280.518 257.74 280.304 257.829 280.063 257.874C281.129 258.262 281.983 258.275 282.552 257.854Z" fill="url(#paint2_linear)"/>
<g clip-path="url(#clip1)">
<path fill-rule="evenodd" clip-rule="evenodd" d="M266.799 235.145L264.227 232.857C263.873 232.542 263.75 232.639 263.948 233.069L265.315 236.04L268.523 238.895L269.498 241.014L266.29 238.159L269.169 244.418L267.426 242.868L264.547 236.608L262.139 234.466L261.163 232.343L263.571 234.485L262.204 231.514C261.47 229.919 261.94 229.571 263.252 230.738L265.824 233.026L266.799 235.145ZM276.251 250.72L278.195 252.449L277.218 250.327L275.272 248.594C274.886 248.251 274.395 247.588 274.179 247.119L268.994 235.847L267.252 234.297L272.436 245.568C273.192 247.21 274.904 249.522 276.251 250.72Z" fill="#0B0E15"/>
</g>
<path d="M272.264 237.014C265.175 227.441 257.46 221.138 255.031 222.937C254.848 223.073 254.7 223.251 254.586 223.469C254.792 227.375 258.529 235.001 264.356 242.87C270.182 250.739 276.387 256.538 280.063 257.874C280.304 257.829 280.518 257.74 280.702 257.604C283.13 255.806 279.353 246.587 272.264 237.014Z" fill="url(#paint3_linear)"/>
</g>
<g clip-path="url(#clip2)">
<path d="M232.057 335.157C251.933 335.157 268.046 319.044 268.046 299.168C268.046 279.291 251.933 263.179 232.057 263.179C212.181 263.179 196.068 279.291 196.068 299.168C196.068 319.044 212.181 335.157 232.057 335.157Z" fill="#00DCDC"/>
<path d="M232.057 263.179C212.182 263.179 196.068 279.292 196.068 299.168C196.068 319.043 212.182 335.157 232.057 335.157C251.934 335.157 268.046 319.043 268.046 299.168C268.046 279.292 251.933 263.179 232.057 263.179ZM232.057 333.53C213.079 333.53 197.695 318.146 197.695 299.168C197.695 280.189 213.079 264.805 232.057 264.805C251.036 264.805 266.42 280.189 266.42 299.168C266.42 318.146 251.036 333.53 232.057 333.53Z" fill="url(#paint4_linear)"/>
<path d="M232.057 333.53C251.036 333.53 266.42 318.146 266.42 299.168C266.42 280.189 251.036 264.805 232.057 264.805C213.079 264.805 197.695 280.189 197.695 299.168C197.695 318.146 213.079 333.53 232.057 333.53ZM232.057 266.562C250.064 266.562 264.662 281.16 264.662 299.168C264.662 317.175 250.064 331.773 232.057 331.773C214.05 331.773 199.452 317.175 199.452 299.168C199.452 281.16 214.05 266.562 232.057 266.562Z" fill="url(#paint5_linear)"/>
<g clip-path="url(#clip3)">
<path fill-rule="evenodd" clip-rule="evenodd" d="M224.914 289.9L219.851 294.963C219.155 295.66 219.161 296.78 219.857 297.476L224.667 302.286L230.983 295.97L234.414 299.4L228.097 305.716L238.23 315.849L234.8 319.279L224.667 309.146L219.927 313.887L216.49 310.45L221.231 305.71L216.421 300.9C213.839 298.318 213.839 294.115 216.421 291.533L221.484 286.47L224.914 289.9ZM252.172 301.906L255.998 298.08L252.562 294.644L248.729 298.476C247.97 299.235 246.73 299.235 245.97 298.476L227.724 280.23L224.294 283.66L242.54 301.906C245.198 304.564 249.521 304.558 252.172 301.906Z" fill="#0B0E15"/>
</g>
<path d="M232.057 331.773C250.065 331.773 264.662 317.175 264.662 299.168C264.662 281.16 250.065 266.562 232.057 266.562C214.05 266.562 199.452 281.16 199.452 299.168C199.452 317.175 214.05 331.773 232.057 331.773Z" fill="url(#paint6_linear)"/>
</g>
<g clip-path="url(#clip4)">
<path d="M207.633 228.428C204.135 221.013 189.301 220.659 174.498 227.64C159.697 234.621 150.532 246.292 154.03 253.709C154.329 254.342 156.842 259.67 157.14 260.304C160.638 267.719 175.473 268.072 190.275 261.092C205.077 254.11 214.241 242.44 210.743 235.023C210.444 234.39 207.932 229.063 207.633 228.428Z" fill="#00DCDC"/>
<path d="M187.164 254.497C201.966 247.516 211.13 235.844 207.633 228.428C204.135 221.012 189.3 220.659 174.498 227.64C159.696 234.621 150.532 246.293 154.03 253.709C157.528 261.125 172.363 261.478 187.164 254.497Z" fill="#00DCDC"/>
<path d="M154.03 253.709C154.329 254.342 156.841 259.67 157.14 260.304C160.638 267.719 175.473 268.072 190.275 261.092C205.077 254.11 214.241 242.44 210.743 235.023C210.444 234.39 207.932 229.063 207.632 228.428C211.13 235.844 201.965 247.515 187.164 254.496C172.363 261.478 157.528 261.125 154.03 253.709Z" fill="url(#paint7_linear)"/>
<path d="M174.5 227.643C159.698 234.624 150.534 246.295 154.031 253.712C157.529 261.128 172.365 261.48 187.166 254.5C201.968 247.518 211.132 235.848 207.634 228.431C204.136 221.014 189.302 220.662 174.5 227.643ZM186.88 253.892C172.746 260.558 158.582 260.222 155.243 253.141C151.903 246.06 160.652 234.915 174.786 228.25C188.919 221.584 203.083 221.92 206.422 229.001C209.762 236.082 201.013 247.226 186.88 253.892Z" fill="url(#paint8_linear)"/>
<g clip-path="url(#clip5)">
<path fill-rule="evenodd" clip-rule="evenodd" d="M180.229 236.898L174.896 239.413C174.163 239.759 173.707 240.311 173.867 240.652L174.978 243.006L181.63 239.869L182.422 241.548L175.77 244.686L178.109 249.646L174.497 251.349L172.157 246.389L167.165 248.744L166.371 247.062L171.364 244.707L170.253 242.353C169.657 241.089 171.385 239.016 174.104 237.734L179.437 235.219L180.229 236.898ZM192.793 242.72L196.822 240.82L196.029 239.138L191.993 241.041C191.193 241.418 190.397 241.423 190.221 241.051L186.009 232.119L182.396 233.823L186.609 242.755C187.222 244.056 190 244.037 192.793 242.72Z" fill="#0B0E15"/>
</g>
<path d="M205.65 231.139C202.427 224.306 189.01 223.863 175.681 230.149C162.353 236.435 154.16 247.071 157.383 253.904C158.663 256.62 161.556 258.325 165.412 259C171.406 259.541 179.238 257.985 187.068 254.292C194.898 250.599 201.08 245.545 204.475 240.577C206.407 237.172 206.931 233.855 205.65 231.139Z" fill="url(#paint9_linear)"/>
<path d="M174.784 228.248C160.651 234.913 151.901 246.057 155.241 253.138C156.395 255.585 158.843 257.226 162.135 258.052C159.916 257.147 158.255 255.75 157.367 253.869C154.145 247.036 162.338 236.4 175.666 230.114C188.994 223.828 202.412 224.271 205.635 231.104C206.522 232.986 206.543 235.156 205.83 237.444C207.287 234.378 207.577 231.445 206.423 228.998C203.082 221.919 188.918 221.582 174.784 228.248Z" fill="url(#paint10_linear)"/>
</g>
<g clip-path="url(#clip6)">
<path d="M155.695 288.134C148.013 266.724 118.106 257.865 88.8928 268.347C59.6819 278.828 42.2274 304.681 49.9095 326.091C50.5657 327.92 52.5418 333.427 53.198 335.256C60.8801 356.666 90.7895 365.524 120 355.043C149.213 344.561 166.666 318.709 158.984 297.299C158.327 295.47 156.351 289.963 155.695 288.134Z" fill="#00DCDC"/>
<path d="M116.712 345.878C145.924 335.397 163.377 309.544 155.695 288.134C148.013 266.724 118.105 257.865 88.8928 268.347C59.6809 278.828 42.2275 304.681 49.9095 326.091C57.5915 347.501 87.4999 356.36 116.712 345.878Z" fill="#00DCDC"/>
<path d="M49.9092 326.091C50.5654 327.92 52.5415 333.427 53.1977 335.256C60.8798 356.666 90.7891 365.524 120 355.043C149.213 344.561 166.665 318.709 158.983 297.299C158.327 295.47 156.352 289.965 155.695 288.134C163.377 309.544 145.922 335.395 116.711 345.876C87.4999 356.357 57.5905 347.499 49.9092 326.091Z" fill="url(#paint11_linear)"/>
<path d="M88.8928 268.347C59.6819 278.828 42.2274 304.681 49.9095 326.091C57.5916 347.501 87.501 356.359 116.712 345.878C145.925 335.396 163.377 309.544 155.695 288.134C148.013 266.724 118.106 257.865 88.8928 268.347ZM116.083 344.126C88.1903 354.134 59.6347 345.675 52.3 325.233C44.9653 304.791 61.6282 280.105 89.5209 270.097C117.414 260.089 145.969 268.548 153.304 288.99C160.639 309.432 143.976 334.118 116.083 344.126Z" fill="url(#paint12_linear)"/>
<path d="M116.083 344.126C143.976 334.118 160.639 309.434 153.305 288.992C145.97 268.55 117.414 260.089 89.5209 270.097C61.6282 280.105 44.9645 304.789 52.2993 325.231C59.634 345.673 88.1903 354.134 116.083 344.126ZM90.88 273.885C117.184 264.447 144.116 272.424 151.033 291.701C157.95 310.979 142.234 334.26 115.93 343.698C89.6258 353.137 62.6939 345.16 55.7769 325.882C48.8599 306.605 64.5761 283.323 90.88 273.885Z" fill="url(#paint13_linear)"/>
<g clip-path="url(#clip7)">
<path fill-rule="evenodd" clip-rule="evenodd" d="M106.582 329.703L113.621 331.632L117.399 326.275L110.349 324.342C108.951 323.959 108.492 322.68 109.327 321.496L129.389 293.051L123.078 291.321L103.016 319.766C100.093 323.91 101.703 328.366 106.582 329.703ZM114.137 295.252L104.822 292.698C103.541 292.347 101.897 292.945 101.131 294.03L95.8427 301.528L107.464 304.713L103.692 310.061L92.071 306.876L80.93 322.672L74.6188 320.942L85.7599 305.146L77.0384 302.756L80.8171 297.398L89.5385 299.789L94.8272 292.29C97.6664 288.265 103.843 286.049 108.593 287.351L117.909 289.904L114.137 295.252Z" fill="#0B0E15"/>
</g>
<path d="M115.929 343.696C142.233 334.258 157.95 310.979 151.033 291.701C144.116 272.423 117.184 264.447 90.8798 273.885C64.5754 283.323 48.8589 306.602 55.776 325.88C62.693 345.158 89.6244 353.135 115.929 343.696Z" fill="url(#paint14_linear)"/>
</g>
<defs>
<linearGradient id="paint0_linear" x1="278.072" y1="262.518" x2="249.53" y2="223.974" gradientUnits="userSpaceOnUse">
<stop stop-opacity="0.1"/>
<stop offset="0.3226" stop-opacity="0.3938"/>
<stop offset="1" stop-opacity="0.1"/>
</linearGradient>
<linearGradient id="paint1_linear" x1="273.745" y1="235.917" x2="264.139" y2="243.031" gradientUnits="userSpaceOnUse">
<stop stop-color="white" stop-opacity="0.2"/>
<stop offset="1" stop-color="white" stop-opacity="0"/>
</linearGradient>
<linearGradient id="paint2_linear" x1="265.106" y1="242.315" x2="273.044" y2="236.436" gradientUnits="userSpaceOnUse">
<stop stop-opacity="0"/>
<stop offset="1" stop-opacity="0.3"/>
</linearGradient>
<linearGradient id="paint3_linear" x1="272.264" y1="237.014" x2="266.822" y2="241.044" gradientUnits="userSpaceOnUse">
<stop stop-color="white" stop-opacity="0.4"/>
<stop offset="1" stop-color="white" stop-opacity="0"/>
</linearGradient>
<linearGradient id="paint4_linear" x1="232.057" y1="263.179" x2="232.057" y2="335.157" gradientUnits="userSpaceOnUse">
<stop stop-color="white" stop-opacity="0.2"/>
<stop offset="1" stop-color="white" stop-opacity="0"/>
</linearGradient>
<linearGradient id="paint5_linear" x1="232.057" y1="333.53" x2="232.057" y2="264.805" gradientUnits="userSpaceOnUse">
<stop stop-color="white" stop-opacity="0.3"/>
<stop offset="0.4884" stop-color="white" stop-opacity="0"/>
<stop offset="1" stop-opacity="0.3"/>
</linearGradient>
<linearGradient id="paint6_linear" x1="232.057" y1="266.642" x2="232.057" y2="305.526" gradientUnits="userSpaceOnUse">
<stop stop-color="white" stop-opacity="0.4"/>
<stop offset="1" stop-color="white" stop-opacity="0"/>
</linearGradient>
<linearGradient id="paint7_linear" x1="212.354" y1="238.44" x2="158.689" y2="263.75" gradientUnits="userSpaceOnUse">
<stop stop-opacity="0.1"/>
<stop offset="0.3226" stop-opacity="0.3938"/>
<stop offset="1" stop-opacity="0.1"/>
</linearGradient>
<linearGradient id="paint8_linear" x1="174.5" y1="227.643" x2="187.165" y2="254.499" gradientUnits="userSpaceOnUse">
<stop stop-color="white" stop-opacity="0.2"/>
<stop offset="1" stop-color="white" stop-opacity="0"/>
</linearGradient>
<linearGradient id="paint9_linear" x1="175.681" y1="230.15" x2="183.372" y2="246.456" gradientUnits="userSpaceOnUse">
<stop stop-color="white" stop-opacity="0.4"/>
<stop offset="1" stop-color="white" stop-opacity="0"/>
</linearGradient>
<linearGradient id="paint10_linear" x1="183.499" y1="246.725" x2="175.82" y2="230.443" gradientUnits="userSpaceOnUse">
<stop stop-opacity="0"/>
<stop offset="1" stop-opacity="0.3"/>
</linearGradient>
<linearGradient id="paint11_linear" x1="164.294" y1="312.099" x2="58.3837" y2="350.101" gradientUnits="userSpaceOnUse">
<stop stop-opacity="0.1"/>
<stop offset="0.3226" stop-opacity="0.3938"/>
<stop offset="1" stop-opacity="0.1"/>
</linearGradient>
<linearGradient id="paint12_linear" x1="88.8927" y1="268.347" x2="123.721" y2="365.412" gradientUnits="userSpaceOnUse">
<stop stop-color="white" stop-opacity="0.2"/>
<stop offset="1" stop-color="white" stop-opacity="0"/>
</linearGradient>
<linearGradient id="paint13_linear" x1="118.318" y1="350.356" x2="91.7567" y2="276.328" gradientUnits="userSpaceOnUse">
<stop stop-color="white" stop-opacity="0.3"/>
<stop offset="0.4884" stop-color="white" stop-opacity="0"/>
<stop offset="1" stop-opacity="0.3"/>
</linearGradient>
<linearGradient id="paint14_linear" x1="88.7718" y1="268.01" x2="113.821" y2="337.822" gradientUnits="userSpaceOnUse">
<stop stop-color="white" stop-opacity="0.4"/>
<stop offset="1" stop-color="white" stop-opacity="0"/>
</linearGradient>
<clipPath id="clip0">
<rect width="47.9049" height="18.7297" fill="white" transform="translate(259.491 216.668) rotate(53.4806)"/>
</clipPath>
<clipPath id="clip1">
<rect width="43.4138" height="9.08392" fill="white" transform="translate(259.323 219.587) rotate(53.4806)"/>
</clipPath>
<clipPath id="clip2">
<rect width="71.9779" height="71.9779" fill="white" transform="translate(196.068 263.179)"/>
</clipPath>
<clipPath id="clip3">
<rect width="65.23" height="65.23" fill="white" transform="translate(199.442 266.553)"/>
</clipPath>
<clipPath id="clip4">
<rect width="59.2652" height="36.9851" fill="white" transform="translate(147.697 240.281) rotate(-25.2502)"/>
</clipPath>
<clipPath id="clip5">
<rect width="53.7091" height="24.9641" fill="white" transform="translate(151.393 241.604) rotate(-25.2502)"/>
</clipPath>
<clipPath id="clip6">
<rect width="112.389" height="92.1084" fill="white" transform="translate(36 287.325) rotate(-19.7385)"/>
</clipPath>
<clipPath id="clip7">
<rect width="101.853" height="71.4937" fill="white" transform="translate(43.165 291.045) rotate(-19.7385)"/>
</clipPath>
</defs>
</svg>
