<svg width="160" height="162" viewBox="0 0 160 162" fill="none" xmlns="http://www.w3.org/2000/svg">
<circle cx="80" cy="80" r="80" fill="#0E005A" fill-opacity="0.2"/>
<circle cx="79.9998" cy="80" r="52.6829" fill="#0E005A" fill-opacity="0.3"/>
<circle cx="80.0002" cy="80" r="31.4983" fill="#0E005A" fill-opacity="0.4"/>
<g clip-path="url(#clip0)">
<path d="M128.823 140.305C131.326 130.951 123.009 120.599 110.245 117.184C97.483 113.769 85.1071 118.583 82.604 127.937C82.3901 128.736 81.7463 131.142 81.5324 131.941C79.0293 141.295 87.347 151.647 100.109 155.062C112.873 158.478 125.248 153.663 127.751 144.309C127.965 143.51 128.609 141.104 128.823 140.305Z" fill="#00DCDC"/>
<path d="M101.181 151.058C113.944 154.473 126.319 149.659 128.823 140.305C131.326 130.951 123.008 120.599 110.245 117.184C97.4826 113.769 85.1071 118.583 82.604 127.937C80.1009 137.291 88.4181 147.643 101.181 151.058Z" fill="#00DCDC"/>
<path d="M82.604 127.937C82.3902 128.736 81.7463 131.142 81.5325 131.941C79.0294 141.295 87.347 151.647 100.109 155.062C112.873 158.478 125.248 153.663 127.751 144.309C127.965 143.51 128.608 141.105 128.823 140.305C126.319 149.659 113.944 154.472 101.181 151.057C88.4188 147.642 80.1011 137.29 82.604 127.937Z" fill="url(#paint0_linear)"/>
<path d="M110.245 117.184C97.483 113.769 85.1071 118.583 82.604 127.937C80.1008 137.291 88.4185 147.643 101.181 151.058C113.944 154.473 126.319 149.659 128.823 140.305C131.326 130.951 123.009 120.599 110.245 117.184ZM101.386 150.292C89.1993 147.031 81.2585 137.148 83.6484 128.217C86.0383 119.285 97.8543 114.688 110.041 117.949C122.227 121.21 130.168 131.093 127.778 140.024C125.388 148.956 113.572 153.553 101.386 150.292Z" fill="url(#paint1_linear)"/>
<path d="M101.385 150.292C113.572 153.553 125.388 148.956 127.778 140.025C130.168 131.094 122.227 121.21 110.04 117.949C97.8539 114.688 86.0382 119.284 83.6482 128.216C81.2583 137.147 89.1989 147.031 101.385 150.292ZM109.598 119.604C121.09 122.679 128.58 132 126.326 140.422C124.072 148.845 112.928 153.181 101.435 150.106C89.9431 147.03 82.4534 137.709 84.7072 129.287C86.961 120.864 98.1052 116.528 109.598 119.604Z" fill="url(#paint2_linear)"/>
<g clip-path="url(#clip1)">
<path fill-rule="evenodd" clip-rule="evenodd" d="M101.558 142.942L103.554 145.324L106.175 144.365L104.176 141.98C103.78 141.507 103.93 140.948 104.509 140.736L118.426 135.647L116.637 133.512L102.72 138.6C100.693 139.342 100.175 141.291 101.558 142.942ZM112.555 132.719L109.915 129.567C109.552 129.133 108.832 128.944 108.301 129.138L104.632 130.479L107.926 134.412L105.309 135.368L102.016 131.436L94.2872 134.262L92.4983 132.126L100.227 129.301L97.7545 126.349L100.376 125.391L102.848 128.342L106.516 127.001C108.486 126.281 111.184 127.003 112.531 128.61L115.171 131.762L112.555 132.719Z" fill="#0B0E15"/>
</g>
<path d="M101.436 150.105C112.929 153.18 124.073 148.845 126.326 140.423C128.58 132 121.091 122.679 109.598 119.604C98.1056 116.528 86.962 120.863 84.7081 129.286C82.4542 137.708 89.9437 147.029 101.436 150.105Z" fill="url(#paint3_linear)"/>
</g>
<g clip-path="url(#clip2)">
<path d="M86.0253 82.3711C86.6505 81.1902 83.3213 78.2023 78.5891 75.697C73.8572 73.1919 69.5143 72.118 68.8891 73.2988C68.8357 73.3997 67.6592 75.622 67.6058 75.7228C66.9806 76.9037 70.3102 79.8917 75.042 82.3969C79.7742 84.9022 84.1168 85.9759 84.742 84.7951C84.7954 84.6942 85.9719 82.4719 86.0253 82.3711Z" fill="#00DCDC"/>
<path d="M68.8892 73.2987C68.8358 73.3995 67.6592 75.6219 67.6058 75.7227C66.9807 76.9036 70.3102 79.8916 75.0421 82.3968C79.7743 84.9021 84.1169 85.9758 84.742 84.795C84.7954 84.6941 85.9718 82.4721 86.0253 82.371C85.4002 83.5518 81.0573 82.4779 76.3254 79.9728C71.5935 77.4676 68.264 74.4796 68.8892 73.2987Z" fill="url(#paint4_linear)"/>
<path d="M78.5891 75.697C73.8572 73.1919 69.5143 72.118 68.8891 73.2988C68.264 74.4797 71.5935 77.4677 76.3254 79.9729C81.0576 82.4782 85.4002 83.5519 86.0253 82.3711C86.6505 81.1902 83.3213 78.2023 78.5891 75.697ZM76.3764 79.8764C71.8581 77.4843 68.6794 74.6314 69.2764 73.5038C69.8733 72.3762 74.0197 73.4014 78.538 75.7935C83.0563 78.1856 86.2351 81.0385 85.6381 82.1661C85.0411 83.2936 80.8948 82.2685 76.3764 79.8764Z" fill="url(#paint5_linear)"/>
<path d="M85.6384 82.166C86.2351 81.0388 83.0563 78.1854 78.5383 75.7935C74.0199 73.4014 69.8736 72.3762 69.2766 73.5038C69.1424 73.7574 69.1997 74.0983 69.4193 74.501C69.423 74.4017 69.4455 74.3107 69.4888 74.229C70.0611 73.148 73.9794 74.1004 78.2403 76.3562C82.5013 78.6121 85.4917 81.3172 84.9194 82.3983C84.8761 82.48 84.8138 82.5499 84.7334 82.6086C85.1903 82.564 85.5043 82.4193 85.6384 82.166Z" fill="url(#paint6_linear)"/>
<g clip-path="url(#clip3)">
<path fill-rule="evenodd" clip-rule="evenodd" d="M75.9182 76.6292L74.5793 76.2433C74.3952 76.1902 74.3672 76.2468 74.5146 76.3692L75.5328 77.2151L77.2031 77.6965L77.9293 78.2998L76.259 77.8183L78.4041 79.6002L77.497 79.3387L75.3519 77.5568L74.0983 77.1955L73.3708 76.5911L74.6244 76.9525L73.6061 76.1066C73.0595 75.6525 73.1703 75.4432 73.8531 75.64L75.1921 76.026L75.9182 76.6292ZM82.091 80.663L83.1027 80.9546L82.3752 80.3503L81.3618 80.0582C81.161 80.0003 80.8657 79.844 80.7049 79.7104L76.8421 76.5017L75.935 76.2402L79.7978 79.4489C80.3605 79.9164 81.3898 80.4609 82.091 80.663Z" fill="#0B0E15"/>
</g>
<path d="M78.2402 76.3562C73.9793 74.1003 70.0609 73.1479 69.4886 74.2289C69.4454 74.3107 69.4225 74.4015 69.4192 74.5009C70.1771 75.8908 72.874 78.022 76.3766 79.8763C79.8791 81.7306 83.1578 82.763 84.7333 82.6086C84.8133 82.5497 84.876 82.4799 84.9192 82.3982C85.4916 81.3172 82.5012 78.612 78.2402 76.3562Z" fill="url(#paint7_linear)"/>
</g>
<g clip-path="url(#clip4)">
<path d="M110.567 106.133C118.611 106.133 125.133 99.6115 125.133 91.5666C125.133 83.5217 118.611 77 110.567 77C102.522 77 96 83.5217 96 91.5666C96 99.6115 102.522 106.133 110.567 106.133Z" fill="#00DCDC"/>
<path d="M110.567 77C102.522 77 96 83.522 96 91.5666C96 99.6112 102.522 106.133 110.567 106.133C118.612 106.133 125.133 99.6112 125.133 91.5666C125.133 83.522 118.611 77 110.567 77ZM110.567 105.475C102.885 105.475 96.6583 99.2482 96.6583 91.5666C96.6583 83.885 102.885 77.6583 110.567 77.6583C118.248 77.6583 124.475 83.885 124.475 91.5666C124.475 99.2482 118.248 105.475 110.567 105.475Z" fill="url(#paint8_linear)"/>
<path d="M110.566 105.475C118.248 105.475 124.475 99.2481 124.475 91.5665C124.475 83.885 118.248 77.6583 110.566 77.6583C102.885 77.6583 96.6582 83.885 96.6582 91.5665C96.6582 99.2481 102.885 105.475 110.566 105.475ZM110.566 78.3696C117.855 78.3696 123.763 84.2781 123.763 91.5665C123.763 98.8549 117.855 104.764 110.566 104.764C103.278 104.764 97.3695 98.8549 97.3695 91.5665C97.3695 84.2781 103.278 78.3696 110.566 78.3696Z" fill="url(#paint9_linear)"/>
<g clip-path="url(#clip5)">
<path fill-rule="evenodd" clip-rule="evenodd" d="M118.708 92.6751L120.257 91.1266L118.866 89.7357L117.315 91.2867C117.007 91.5941 116.505 91.5941 116.198 91.2867L108.813 83.9016L107.424 85.29L114.809 92.6751C115.885 93.751 117.635 93.7484 118.708 92.6751ZM107.675 87.8158L105.626 89.8651C105.344 90.1469 105.347 90.6003 105.629 90.8821L107.575 92.8289L110.132 90.2724L111.52 91.6608L108.964 94.2173L113.065 98.3184L111.676 99.7068L107.575 95.6056L105.657 97.5243L104.266 96.1333L106.184 94.2147L104.238 92.2679C103.192 91.2227 103.192 89.5218 104.238 88.4767L106.287 86.4274L107.675 87.8158Z" fill="#0B0E15"/>
</g>
<path d="M110.567 104.764C117.855 104.764 123.764 98.8551 123.764 91.5666C123.764 84.2781 117.855 78.3696 110.567 78.3696C103.278 78.3696 97.3696 84.2781 97.3696 91.5666C97.3696 98.8551 103.278 104.764 110.567 104.764Z" fill="url(#paint10_linear)"/>
</g>
<g clip-path="url(#clip6)">
<path d="M83.7277 99.843C82.9525 96.6163 77.1028 95.2545 70.6619 96.8021C64.2214 98.3496 59.6285 102.22 60.4039 105.447C60.4701 105.723 61.0272 108.041 61.0934 108.317C61.8687 111.543 67.7188 112.905 74.1592 111.358C80.6002 109.81 85.1926 105.94 84.4172 102.713C84.351 102.437 83.7941 100.119 83.7277 99.843Z" fill="#00DCDC"/>
<path d="M73.4697 108.488C79.9104 106.94 84.5031 103.07 83.7277 99.843C82.9524 96.616 77.1026 95.2546 70.6619 96.8021C64.2212 98.3497 59.6286 102.22 60.4039 105.447C61.1793 108.674 67.029 110.036 73.4697 108.488Z" fill="#00DCDC"/>
<path d="M60.4043 105.447C60.4705 105.723 61.0276 108.041 61.0938 108.317C61.8691 111.543 67.7191 112.905 74.1596 111.358C80.6006 109.81 85.193 105.94 84.4176 102.713C84.3514 102.437 83.7945 100.119 83.7281 99.843C84.5034 103.07 79.9105 106.94 73.47 108.488C67.0297 110.036 61.1797 108.674 60.4043 105.447Z" fill="url(#paint11_linear)"/>
<path d="M70.6624 96.8042C64.2219 98.3517 59.629 102.222 60.4044 105.449C61.1798 108.676 67.0298 110.038 73.4702 108.49C79.9112 106.942 84.5036 103.072 83.7282 99.8451C82.9528 96.618 77.1033 95.2566 70.6624 96.8042ZM73.4067 108.226C67.2569 109.703 61.6718 108.404 60.9315 105.323C60.1912 102.241 64.576 98.5457 70.7258 97.0681C76.8756 95.5904 82.4607 96.8902 83.2011 99.9713C83.9414 103.052 79.5566 106.748 73.4067 108.226Z" fill="url(#paint12_linear)"/>
<g clip-path="url(#clip7)">
<path fill-rule="evenodd" clip-rule="evenodd" d="M72.1703 100.943L69.85 101.5C69.531 101.577 69.3046 101.758 69.3402 101.907L69.5864 102.931L72.4809 102.236L72.6564 102.966L69.762 103.662L70.2805 105.82L68.7086 106.198L68.19 104.039L66.0177 104.561L65.8418 103.829L68.0141 103.307L67.768 102.283C67.6358 101.733 68.4912 101.054 69.6745 100.77L71.9947 100.212L72.1703 100.943ZM76.6699 104.285L78.4231 103.864L78.2472 103.132L76.4911 103.554C76.1431 103.637 75.8271 103.573 75.7883 103.412L74.8544 99.5251L73.2825 99.9028L74.2163 103.789C74.3523 104.355 75.4547 104.577 76.6699 104.285Z" fill="#0B0E15"/>
</g>
<path d="M82.7193 100.754C82.0048 97.7808 76.7241 96.5003 70.9245 97.8937C65.125 99.2872 61.0025 102.827 61.7169 105.8C62.0008 106.982 63.0068 107.896 64.4792 108.481C66.8098 109.189 70.0416 109.217 73.4486 108.399C76.8557 107.58 79.7218 106.087 81.4765 104.397C82.5222 103.207 83.0032 101.936 82.7193 100.754Z" fill="url(#paint13_linear)"/>
<path d="M70.7257 97.0664C64.5758 98.5441 60.1909 102.239 60.9312 105.321C61.1871 106.385 62.0221 107.237 63.2586 107.836C62.4535 107.294 61.9104 106.604 61.7137 105.785C60.9992 102.812 65.1218 99.2722 70.9213 97.8787C76.7208 96.4852 82.0016 97.7657 82.716 100.739C82.9128 101.558 82.7421 102.42 82.2712 103.267C83.101 102.173 83.4577 101.034 83.2019 99.9695C82.4607 96.889 76.8755 95.5888 70.7257 97.0664Z" fill="url(#paint14_linear)"/>
</g>
<defs>
<linearGradient id="paint0_linear" x1="126.021" y1="150.775" x2="79.7478" y2="138.393" gradientUnits="userSpaceOnUse">
<stop stop-opacity="0.1"/>
<stop offset="0.3226" stop-opacity="0.3938"/>
<stop offset="1" stop-opacity="0.1"/>
</linearGradient>
<linearGradient id="paint1_linear" x1="110.246" y1="117.184" x2="98.8972" y2="159.593" gradientUnits="userSpaceOnUse">
<stop stop-color="white" stop-opacity="0.2"/>
<stop offset="1" stop-color="white" stop-opacity="0"/>
</linearGradient>
<linearGradient id="paint2_linear" x1="100.657" y1="153.014" x2="109.312" y2="120.671" gradientUnits="userSpaceOnUse">
<stop stop-color="white" stop-opacity="0.3"/>
<stop offset="0.4884" stop-color="white" stop-opacity="0"/>
<stop offset="1" stop-opacity="0.3"/>
</linearGradient>
<linearGradient id="paint3_linear" x1="110.285" y1="117.037" x2="102.123" y2="147.538" gradientUnits="userSpaceOnUse">
<stop stop-color="white" stop-opacity="0.4"/>
<stop offset="1" stop-color="white" stop-opacity="0"/>
</linearGradient>
<linearGradient id="paint4_linear" x1="84.8178" y1="84.6519" x2="67.6614" y2="75.569" gradientUnits="userSpaceOnUse">
<stop stop-opacity="0.1"/>
<stop offset="0.3226" stop-opacity="0.3938"/>
<stop offset="1" stop-opacity="0.1"/>
</linearGradient>
<linearGradient id="paint5_linear" x1="78.5891" y1="75.697" x2="76.3254" y2="79.9728" gradientUnits="userSpaceOnUse">
<stop stop-color="white" stop-opacity="0.2"/>
<stop offset="1" stop-color="white" stop-opacity="0"/>
</linearGradient>
<linearGradient id="paint6_linear" x1="76.5535" y1="79.5423" x2="78.4243" y2="76.0088" gradientUnits="userSpaceOnUse">
<stop stop-opacity="0"/>
<stop offset="1" stop-opacity="0.3"/>
</linearGradient>
<linearGradient id="paint7_linear" x1="78.2402" y1="76.3562" x2="76.9578" y2="78.7785" gradientUnits="userSpaceOnUse">
<stop stop-color="white" stop-opacity="0.4"/>
<stop offset="1" stop-color="white" stop-opacity="0"/>
</linearGradient>
<linearGradient id="paint8_linear" x1="110.567" y1="77" x2="110.567" y2="106.133" gradientUnits="userSpaceOnUse">
<stop stop-color="white" stop-opacity="0.2"/>
<stop offset="1" stop-color="white" stop-opacity="0"/>
</linearGradient>
<linearGradient id="paint9_linear" x1="110.566" y1="105.475" x2="110.566" y2="77.6581" gradientUnits="userSpaceOnUse">
<stop stop-color="white" stop-opacity="0.3"/>
<stop offset="0.4884" stop-color="white" stop-opacity="0"/>
<stop offset="1" stop-opacity="0.3"/>
</linearGradient>
<linearGradient id="paint10_linear" x1="110.567" y1="78.4017" x2="110.567" y2="94.1401" gradientUnits="userSpaceOnUse">
<stop stop-color="white" stop-opacity="0.4"/>
<stop offset="1" stop-color="white" stop-opacity="0"/>
</linearGradient>
<linearGradient id="paint11_linear" x1="84.7748" y1="104.199" x2="61.4236" y2="109.81" gradientUnits="userSpaceOnUse">
<stop stop-opacity="0.1"/>
<stop offset="0.3226" stop-opacity="0.3938"/>
<stop offset="1" stop-opacity="0.1"/>
</linearGradient>
<linearGradient id="paint12_linear" x1="70.6624" y1="96.8042" x2="73.4701" y2="108.49" gradientUnits="userSpaceOnUse">
<stop stop-color="white" stop-opacity="0.2"/>
<stop offset="1" stop-color="white" stop-opacity="0"/>
</linearGradient>
<linearGradient id="paint13_linear" x1="70.9246" y1="97.8939" x2="72.6294" y2="104.989" gradientUnits="userSpaceOnUse">
<stop stop-color="white" stop-opacity="0.4"/>
<stop offset="1" stop-color="white" stop-opacity="0"/>
</linearGradient>
<linearGradient id="paint14_linear" x1="72.6574" y1="105.106" x2="70.9552" y2="98.0218" gradientUnits="userSpaceOnUse">
<stop stop-opacity="0"/>
<stop offset="1" stop-opacity="0.3"/>
</linearGradient>
<clipPath id="clip0">
<rect width="47.8447" height="39.2111" fill="white" transform="translate(87.1362 111) rotate(14.9811)"/>
</clipPath>
<clipPath id="clip1">
<rect width="43.3593" height="30.4353" fill="white" transform="translate(88.7417 114.039) rotate(14.9811)"/>
</clipPath>
<clipPath id="clip2">
<rect width="19.3896" height="7.58088" fill="white" transform="translate(70.021 71.1609) rotate(27.8977)"/>
</clipPath>
<clipPath id="clip3">
<rect width="17.5718" height="3.67673" fill="white" transform="translate(70.4697 72.2558) rotate(27.8977)"/>
</clipPath>
<clipPath id="clip4">
<rect width="29.1331" height="29.1331" fill="white" transform="translate(96 77)"/>
</clipPath>
<clipPath id="clip5">
<rect width="26.4019" height="26.4019" fill="white" transform="translate(97.3652 78.3657)"/>
</clipPath>
<clipPath id="clip6">
<rect width="23.9877" height="14.9697" fill="white" transform="translate(59 99.6042) rotate(-13.5107)"/>
</clipPath>
<clipPath id="clip7">
<rect width="21.7388" height="10.1043" fill="white" transform="translate(60.356 100.433) rotate(-13.5107)"/>
</clipPath>
</defs>
</svg>
