<svg xmlns="http://www.w3.org/2000/svg" xmlns:xlink="http://www.w3.org/1999/xlink" viewBox="0 0 155.99 125"><defs>
<style>
.dao1{fill:none;}
.dao2{clip-path:url(#clip-path);}
.dao3{fill:#fedb88;}
.dao4{fill:#fbcc5f;}
.dao5{fill:#f9a606;}
.dao6{fill:#fff;fill-rule:evenodd;}
</style>
<clipPath id="clip-path">
<rect class="dao1" width="155.99" height="125"/></clipPath>
</defs><g id="Layer_2" data-name="Layer 2"><g id="Layer_1-2" data-name="Layer 1"><g class="dao2">

<path class="dao3" d="M124.8,62.5c0,2-.1,4.09-.3,6.12s-.5,4.06-.9,6.07-.9,4-1.49,6-1.28,3.88-2.06,5.77-1.66,3.74-2.62,5.55-2,3.56-3.15,5.26-2.35,3.34-3.65,4.93-2.67,3.09-4.11,4.54-3,2.82-4.54,4.12a60.17,60.17,0,0,1-4.92,3.65c-1.69,1.14-3.45,2.19-5.25,3.16s-3.65,1.84-5.53,2.62-3.81,1.47-5.77,2.06a57.31,57.31,0,0,1-5.94,1.49q-3,.6-6.06.9a60.47,60.47,0,0,1-12.23,0q-3-.3-6.06-.9a58.62,58.62,0,0,1-5.94-1.49q-2.93-.89-5.76-2.06c-1.89-.78-3.73-1.66-5.54-2.62s-3.55-2-5.25-3.16a60.17,60.17,0,0,1-4.92-3.65,61,61,0,0,1-4.53-4.12q-2.18-2.18-4.12-4.54c-1.29-1.59-2.51-3.23-3.64-4.93A60.92,60.92,0,0,1,7.37,92a59.76,59.76,0,0,1-2.62-5.55q-1.17-2.84-2.06-5.77a60.87,60.87,0,0,1-1.49-6q-.6-3-.9-6.07c-.2-2-.3-4.08-.3-6.12s.1-4.09.3-6.13.5-4.06.9-6.06a60.16,60.16,0,0,1,1.49-6q.88-2.94,2.06-5.78a62.68,62.68,0,0,1,5.77-10.8,60.75,60.75,0,0,1,7.76-9.47,58.84,58.84,0,0,1,4.53-4.12q2.37-1.95,4.92-3.66C29.43,9.4,31.18,8.34,33,7.38a60.82,60.82,0,0,1,5.54-2.62c1.89-.79,3.81-1.47,5.76-2.07S48.22,1.6,50.22,1.2s4-.7,6.06-.9S60.35,0,62.4,0s4.08.1,6.11.3,4.06.5,6.06.9,4,.9,5.94,1.49S84.39,4,86.28,4.76a60.64,60.64,0,0,1,5.53,2.62c1.8,1,3.56,2,5.25,3.15s3.34,2.36,4.92,3.66a62.35,62.35,0,0,1,12.3,13.59c1.14,1.7,2.18,3.45,3.15,5.26s1.83,3.65,2.62,5.54,1.47,3.82,2.06,5.78,1.09,3.94,1.49,6,.7,4,.9,6.06S124.8,60.45,124.8,62.5Z"/>

<path class="dao4" d="M137.28,62.5a59.58,59.58,0,0,1-.31,6.12c-.2,2-.49,4.06-.89,6.07s-.9,4-1.49,6-1.28,3.88-2.06,5.77-1.66,3.74-2.62,5.55-2,3.56-3.15,5.26-2.35,3.34-3.65,4.93-2.67,3.09-4.11,4.54-3,2.82-4.54,4.12a60.17,60.17,0,0,1-4.92,3.65q-2.55,1.71-5.25,3.16c-1.8,1-3.65,1.84-5.53,2.62S95,121.71,93,122.3a57.31,57.31,0,0,1-5.94,1.49q-3,.6-6.06.9a60.47,60.47,0,0,1-12.23,0q-3-.3-6.06-.9a58.62,58.62,0,0,1-5.94-1.49q-2.92-.89-5.76-2.06c-1.89-.78-3.73-1.66-5.54-2.62s-3.55-2-5.25-3.16a60.17,60.17,0,0,1-4.92-3.65,61,61,0,0,1-4.53-4.12q-2.18-2.18-4.12-4.54c-1.29-1.59-2.51-3.23-3.64-4.93A60.92,60.92,0,0,1,19.85,92a59.76,59.76,0,0,1-2.62-5.55q-1.17-2.84-2.06-5.77a60.87,60.87,0,0,1-1.49-6q-.6-3-.9-6.07c-.2-2-.3-4.08-.3-6.12s.1-4.09.3-6.13.5-4.06.9-6.06a60.16,60.16,0,0,1,1.49-6q.88-2.94,2.06-5.78A62.68,62.68,0,0,1,23,27.78a60.75,60.75,0,0,1,7.76-9.47,58.84,58.84,0,0,1,4.53-4.12q2.37-1.95,4.92-3.66c1.7-1.13,3.45-2.19,5.25-3.15A60.82,60.82,0,0,1,51,4.76c1.89-.79,3.81-1.47,5.76-2.07S60.7,1.6,62.7,1.2s4-.7,6.06-.9S72.83,0,74.88,0,79,.1,81,.3s4.06.5,6.06.9S91,2.1,93,2.69,96.87,4,98.76,4.76a60.64,60.64,0,0,1,5.53,2.62c1.8,1,3.55,2,5.25,3.15s3.34,2.36,4.92,3.66a62.35,62.35,0,0,1,12.3,13.59q1.69,2.55,3.15,5.26t2.62,5.54q1.17,2.84,2.06,5.78c.59,2,1.09,3.94,1.49,6s.69,4,.89,6.06A59.77,59.77,0,0,1,137.28,62.5Z"/>

<path class="dao5" d="M156,62.5c0,2-.1,4.09-.3,6.12s-.5,4.06-.89,6.07-.9,4-1.49,6-1.28,3.88-2.07,5.77-1.65,3.74-2.61,5.55-2,3.56-3.15,5.26-2.35,3.34-3.65,4.93-2.67,3.09-4.11,4.54-3,2.82-4.54,4.12a60.17,60.17,0,0,1-4.92,3.65q-2.55,1.71-5.25,3.16c-1.8,1-3.65,1.84-5.53,2.62s-3.81,1.47-5.77,2.06a58.62,58.62,0,0,1-5.94,1.49q-3,.6-6.06.9a60.47,60.47,0,0,1-12.23,0q-3-.3-6.06-.9a58.62,58.62,0,0,1-5.94-1.49q-2.92-.89-5.76-2.06c-1.89-.78-3.74-1.66-5.54-2.62s-3.55-2-5.25-3.16A60.17,60.17,0,0,1,54,110.81q-2.37-1.95-4.54-4.12t-4.11-4.54q-1.94-2.39-3.65-4.93c-1.13-1.7-2.18-3.46-3.14-5.26A59.76,59.76,0,0,1,36,86.41q-1.17-2.84-2.06-5.77a60.87,60.87,0,0,1-1.49-6q-.6-3-.9-6.07c-.2-2-.3-4.08-.3-6.12s.1-4.09.3-6.13.5-4.06.9-6.06a60.16,60.16,0,0,1,1.49-6q.88-2.94,2.06-5.78A59.58,59.58,0,0,1,38.57,33q1.44-2.71,3.14-5.26t3.65-4.93c1.3-1.58,2.67-3.1,4.11-4.54A60.9,60.9,0,0,1,54,14.19q2.37-1.95,4.92-3.66c1.7-1.13,3.45-2.19,5.25-3.15a59.58,59.58,0,0,1,5.54-2.62c1.89-.79,3.81-1.47,5.76-2.07S79.42,1.6,81.42,1.2s4-.7,6.06-.9S91.55,0,93.6,0s4.08.1,6.11.3,4.06.5,6.06.9,4,.9,5.94,1.49,3.88,1.28,5.77,2.07A60.64,60.64,0,0,1,123,7.38c1.8,1,3.55,2,5.25,3.15s3.34,2.36,4.92,3.66a60.9,60.9,0,0,1,4.54,4.12c1.44,1.44,2.81,3,4.11,4.54a60.94,60.94,0,0,1,3.65,4.93q1.7,2.55,3.15,5.26t2.62,5.54c.78,1.89,1.46,3.82,2.06,5.78s1.09,3.94,1.49,6,.69,4,.89,6.06S156,60.45,156,62.5Z"/>

<path class="dao6" d="M95.67,43.92c9,0,15.6,4.42,18.67,11H81.22v-11ZM116,66.72H81.22V60.65H116a21.73,21.73,0,0,1,.2,2.93v.14A21.19,21.19,0,0,1,116,66.72ZM81.22,72.49V83.24H95.67c8.91,0,15.54-4.3,18.62-10.75ZM75.61,38.75H95.67c12.2,0,21.45,6.57,24.89,16.13h6.25v5.77h-4.94a25.53,25.53,0,0,1,.15,2.79v.14a25,25,0,0,1-.19,3.14h5v5.77h-6.37c-3.53,9.43-12.71,15.93-24.77,15.93H75.61V72.49h-7V66.72h7V60.65h-7V54.88h7Z"/></g></g></g></svg>