<svg width="32" height="32" viewBox="0 0 32 32" fill="none" xmlns="http://www.w3.org/2000/svg">
<g clip-path="url(#clip0)">
<path d="M16.0001 32C24.8367 32 32.0001 24.8366 32.0001 16C32.0001 7.16344 24.8367 0 16.0001 0C7.16357 0 0.00012207 7.16344 0.00012207 16C0.00012207 24.8366 7.16357 32 16.0001 32Z" fill="#4E26FF"/>
<path d="M20.0866 14.7847H16.9084V11.9929H15.011V14.7859H12.0121C11.1544 14.7859 10.1956 13.9055 10.1956 12.7281C10.1956 11.5508 11.1544 10.6703 12.0121 10.6703H22.5739V8.47359H16.9084V6.47769H15.011V8.47359H12.0121C9.83685 8.47359 8.00012 10.4215 8.00012 12.7269C8.00012 15.0322 9.83685 16.9801 12.0121 16.9801H15.011V19.8451H16.9084V16.9801H20.0866C20.9557 16.9801 21.9651 17.8796 21.9651 19.0379V19.1718C21.9651 20.3302 20.9545 21.2296 20.0866 21.2296H8.81364V23.4251H15.011V25.6572H16.9084V23.4251H20.0866C22.2569 23.4251 24.1605 21.4368 24.1605 19.1718V19.0379C24.1605 16.773 22.2569 14.7847 20.0866 14.7847Z" fill="white"/>
</g>
<defs>
<clipPath id="clip0">
<rect width="32" height="32" fill="white" transform="translate(0.00012207)"/>
</clipPath>
</defs>
</svg>
