<svg width="32" height="32" viewBox="0 0 32 32" fill="none" xmlns="http://www.w3.org/2000/svg">
<g clip-path="url(#clip0)">
<path d="M16.0001 32C24.8367 32 32.0001 24.8366 32.0001 16C32.0001 7.16344 24.8367 0 16.0001 0C7.16357 0 0.00012207 7.16344 0.00012207 16C0.00012207 24.8366 7.16357 32 16.0001 32Z" fill="#00DCDC"/>
<path d="M25.0001 24H22.3415C20.5018 24 19.0001 22.5027 19.0001 20.6586V8H21.3799V20.6586C21.3799 21.1855 21.8102 21.6158 22.3371 21.6158H24.9957V24H25.0001Z" fill="#0B0E15"/>
<path d="M13.538 10.3798H17.0506V8H13.538C11.7466 8 10.2888 9.45774 10.2888 11.2492V14.5862H7.00012V16.9704H10.2888V24H12.6686V16.9704H17.0506V14.5906H12.6686V11.2536C12.6686 10.7706 13.055 10.3798 13.538 10.3798Z" fill="#0B0E15"/>
</g>
<defs>
<clipPath id="clip0">
<rect width="32" height="32" fill="white" transform="translate(0.00012207)"/>
</clipPath>
</defs>
</svg>
