<svg width="337" height="284" viewBox="0 0 337 284" fill="none" xmlns="http://www.w3.org/2000/svg">
<path d="M293 88.1175C317.301 88.1175 337 68.4374 337 44.1607C337 19.884 317.301 0.203796 293 0.203796C268.699 0.203796 249 19.884 249 44.1607C249 68.4374 268.699 88.1175 293 88.1175Z" fill="#4E26FF"/>
<path d="M304.349 39.8469H295.609V32.1772H290.391V39.8504H282.144C279.785 39.8504 277.149 37.4314 277.149 34.197C277.149 30.9625 279.785 28.5436 282.144 28.5436H311.189V22.5085H295.609V17.0251H290.391V22.5085H282.144C276.162 22.5085 271.111 27.8599 271.111 34.1935C271.111 40.5271 276.162 45.8786 282.144 45.8786H290.391V53.7496H295.609V45.8786H304.349C306.739 45.8786 309.515 48.3495 309.515 51.5319V51.8998C309.515 55.0822 306.736 57.5532 304.349 57.5532H273.348V63.5849H290.391V69.7172H295.609V63.5849H304.349C310.317 63.5849 315.552 58.1223 315.552 51.8998V51.5319C315.552 45.3094 310.317 39.8469 304.349 39.8469Z" fill="white"/>
<path d="M191 44L228 44" stroke="white" stroke-width="2" stroke-miterlimit="10"/>
<path d="M217 33L228 44L217 55" stroke="#F3F3F5" stroke-width="2"/>
<rect width="174" height="89" rx="18" fill="#222B3F"/>
<rect y="93" width="174" height="231" rx="18" fill="url(#paint0_linear)"/>
<path d="M79.6383 69.2625C92.8709 69.2625 103.58 58.5173 103.558 45.2625C103.536 32.0077 92.7905 21.2625 79.5579 21.2625C66.3252 21.2625 55.616 32.0077 55.6382 45.2625C55.6604 58.5173 66.4056 69.2625 79.6383 69.2625Z" fill="#50AF95"/>
<path d="M82.147 42.5588V39.4938H89.1617V34.8149H70.0612V39.4938H77.076V42.5588C71.3725 42.8201 67.0848 43.9521 67.0848 45.3046C67.0848 46.6572 71.3725 47.7892 77.076 48.0504V57.8784H82.147V48.0446C87.8388 47.7834 92.115 46.6514 92.115 45.2988C92.115 43.9521 87.8388 42.8201 82.147 42.5588ZM82.147 47.2087C82.0019 47.2145 81.2709 47.2609 79.6289 47.2609C78.3176 47.2609 77.4009 47.2203 77.076 47.2087V47.2145C72.0398 46.9939 68.28 46.1173 68.28 45.0666C68.28 44.0159 72.0398 43.1393 77.076 42.9129V46.3437C77.4067 46.367 78.3466 46.425 79.6521 46.425C81.2186 46.425 82.0019 46.3612 82.147 46.3495V42.9246C87.1774 43.151 90.9255 44.0275 90.9255 45.0724C90.9255 46.1115 87.1716 46.9881 82.147 47.2087Z" fill="white"/>
<path d="M46 70.0981C59.8532 70.0981 71 58.9528 71 45.101C71 31.2495 59.8535 20.0981 46 20.0981C32.1464 20.0981 21 31.2495 21 45.101C21 58.9528 32.1468 70.0981 46 70.0981Z" fill="#2775CA" stroke="#222B3F" stroke-width="2"/>
<path d="M52.5983 48.8991C52.5983 45.3972 50.4957 44.2008 46.2963 43.7013C43.2933 43.3006 42.6951 42.4992 42.6951 41.0995C42.6951 39.6999 43.6941 38.7997 45.698 38.7997C47.4986 38.7997 48.4976 39.3979 48.9971 40.9021C49.0959 41.2041 49.3979 41.4015 49.6999 41.4015H51.2972C51.698 41.4015 52 41.0995 52 40.7046V40.6059C51.5993 38.4048 49.7987 36.709 47.4986 36.5057V34.1071C47.4986 33.7064 47.1965 33.4044 46.697 33.3057H45.1985C44.7977 33.3057 44.4957 33.6077 44.3969 34.1071V36.407C41.394 36.8077 39.4947 38.8055 39.4947 41.3086C39.4947 44.6073 41.4928 45.9082 45.6922 46.4077C48.4918 46.9071 49.3921 47.5053 49.3921 49.1082C49.3921 50.7111 47.9923 51.8088 46.093 51.8088C43.4908 51.8088 42.5905 50.7111 42.2943 49.207C42.1956 48.8062 41.8935 48.6088 41.5973 48.6088H39.9013C39.5005 48.6088 39.2043 48.9108 39.2043 49.3115V49.4102C39.6051 51.9075 41.2023 53.7079 44.5073 54.2073V56.6059C44.5073 57.0066 44.8093 57.3028 45.3088 57.4073H46.8074C47.2082 57.4073 47.5102 57.1053 47.6089 56.6059V54.2073C50.6002 53.6962 52.5983 51.5997 52.5983 48.8991Z" fill="white"/>
<path d="M40.9003 59.3993C33.0997 56.6001 29.0978 47.9003 31.9961 40.1993C33.4947 36.0004 36.7938 32.8004 40.8945 31.3021C41.2952 31.1046 41.4927 30.8026 41.4927 30.3032V28.9035C41.4927 28.5028 41.2952 28.2008 40.8945 28.1021C40.7957 28.1021 40.5924 28.1021 40.4937 28.2008C30.9913 31.2033 25.7928 41.3028 28.7957 50.7983C30.5963 56.3968 34.8945 60.7002 40.4937 62.4948C40.8945 62.6923 41.2952 62.4948 41.394 62.0941C41.4927 61.9953 41.4927 61.8966 41.4927 61.6934V60.2937C41.4985 59.9975 41.1965 59.5968 40.9003 59.3993ZM51.5005 28.2008C51.0997 28.0033 50.6989 28.2008 50.6002 28.6015C50.5014 28.7003 50.5014 28.799 50.5014 29.0023V30.4019C50.5014 30.8026 50.8035 31.2033 51.0997 31.4008C58.9003 34.2001 62.9022 42.8999 59.998 50.6008C58.4995 54.7997 55.2004 57.9997 51.0997 59.4981C50.6989 59.6955 50.5014 59.9975 50.5014 60.497V61.8966C50.5014 62.2973 50.6989 62.5993 51.0997 62.6981C51.1984 62.6981 51.4017 62.6981 51.5005 62.5993C61.0029 59.5968 66.2013 49.4973 63.1984 40.0019C61.3978 34.2988 57.0009 30.0012 51.5005 28.2008Z" fill="white"/>
<path d="M127 41L137.5 51L148 41" stroke="#6F7A96" stroke-width="3"/>
<defs>
<linearGradient id="paint0_linear" x1="87" y1="93" x2="87" y2="299" gradientUnits="userSpaceOnUse">
<stop stop-color="#222B3F" stop-opacity="0.54"/>
<stop offset="1" stop-color="#222B3F" stop-opacity="0"/>
</linearGradient>
</defs>
</svg>
