<svg width="370" height="240" viewBox="0 0 370 240" fill="none" xmlns="http://www.w3.org/2000/svg">
<path d="M213.52 114.64C227.504 114.64 238.84 103.304 238.84 89.32C238.84 75.3362 227.504 64 213.52 64C199.536 64 188.2 75.3362 188.2 89.32C188.2 103.304 199.536 114.64 213.52 114.64Z" fill="#00C4C4"/>
<path d="M260.06 175.46H167V154.46C167 142.84 176.42 133.41 188.05 133.41H239.02C250.64 133.41 260.07 142.83 260.07 154.46V175.46H260.06Z" fill="#00C4C4"/>
<g opacity="0.3">
<path d="M249.46 114.64C263.444 114.64 274.78 103.304 274.78 89.32C274.78 75.3362 263.444 64 249.46 64C235.476 64 224.14 75.3362 224.14 89.32C224.14 103.304 235.476 114.64 249.46 114.64Z" fill="#00C4C4"/>
<path d="M296 175.46H202.94V154.46C202.94 142.84 212.36 133.41 223.99 133.41H274.96C286.58 133.41 296.01 142.83 296.01 154.46V175.46H296Z" fill="#00C4C4"/>
</g>
<g opacity="0.1">
<path d="M284.46 114.64C298.444 114.64 309.78 103.304 309.78 89.32C309.78 75.3362 298.444 64 284.46 64C270.476 64 259.14 75.3362 259.14 89.32C259.14 103.304 270.476 114.64 284.46 114.64Z" fill="#00C4C4"/>
<path d="M331 175.46H237.94V154.46C237.94 142.84 247.36 133.41 258.99 133.41H309.96C321.58 133.41 331.01 142.83 331.01 154.46V175.46H331Z" fill="#00C4C4"/>
</g>
<path d="M153.53 114.64C167.514 114.64 178.85 103.304 178.85 89.32C178.85 75.3362 167.514 64 153.53 64C139.546 64 128.21 75.3362 128.21 89.32C128.21 103.304 139.546 114.64 153.53 114.64Z" fill="#4E26FF"/>
<path d="M200.06 175.46H107V154.46C107 142.84 116.42 133.41 128.05 133.41H179.02C190.64 133.41 200.07 142.83 200.07 154.46V175.46H200.06Z" fill="#4E26FF"/>
<g opacity="0.1">
<path d="M81.53 114.64C95.5138 114.64 106.85 103.304 106.85 89.32C106.85 75.3362 95.5138 64 81.53 64C67.5461 64 56.21 75.3362 56.21 89.32C56.21 103.304 67.5461 114.64 81.53 114.64Z" fill="#4E26FF"/>
<path d="M128.06 175.46H35V154.46C35 142.84 44.42 133.41 56.05 133.41H107.02C118.64 133.41 128.07 142.83 128.07 154.46V175.46H128.06Z" fill="#4E26FF"/>
</g>
<g opacity="0.3">
<path d="M115.53 114.64C129.514 114.64 140.85 103.304 140.85 89.32C140.85 75.3362 129.514 64 115.53 64C101.546 64 90.21 75.3362 90.21 89.32C90.21 103.304 101.546 114.64 115.53 114.64Z" fill="#4E26FF"/>
<path d="M162.06 175.46H69V154.46C69 142.84 78.42 133.41 90.05 133.41H141.02C152.64 133.41 162.07 142.83 162.07 154.46V175.46H162.06Z" fill="#4E26FF"/>
</g>
</svg>
