<svg width="315" height="145" viewBox="0 0 315 145" fill="none" xmlns="http://www.w3.org/2000/svg">
<path d="M153.044 134.85C187.31 134.85 215.088 107.099 215.088 72.8668C215.088 38.6345 187.31 10.8836 153.044 10.8836C118.778 10.8836 91 38.6345 91 72.8668C91 107.099 118.778 134.85 153.044 134.85Z" fill="#4E26FF"/>
<path opacity="0.4" d="M121.044 125.85C155.31 125.85 183.088 98.0992 183.088 63.8668C183.088 29.6345 155.31 1.88364 121.044 1.88364C86.7781 1.88364 59 29.6345 59 63.8668C59 98.0992 86.7781 125.85 121.044 125.85Z" fill="#4E26FF"/>
<path opacity="0.4" d="M186.044 143.85C220.31 143.85 248.088 116.099 248.088 81.8668C248.088 47.6345 220.31 19.8836 186.044 19.8836C151.778 19.8836 124 47.6345 124 81.8668C124 116.099 151.778 143.85 186.044 143.85Z" fill="#4E26FF"/>
<path opacity="0.1" d="M90.044 124.85C124.31 124.85 152.088 97.0992 152.088 62.8668C152.088 28.6345 124.31 0.883636 90.044 0.883636C55.7781 0.883636 28 28.6345 28 62.8668C28 97.0992 55.7781 124.85 90.044 124.85Z" fill="#4E26FF"/>
<path opacity="0.1" d="M62.044 138.966C96.31 138.966 124.088 111.216 124.088 76.9832C124.088 42.7508 96.31 15 62.044 15C27.7781 15 0 42.7508 0 76.9832C0 111.216 27.7781 138.966 62.044 138.966Z" fill="#4E26FF"/>
<path opacity="0.1" d="M219.044 144.85C253.31 144.85 281.088 117.099 281.088 82.8668C281.088 48.6345 253.31 20.8836 219.044 20.8836C184.778 20.8836 157 48.6345 157 82.8668C157 117.099 184.778 144.85 219.044 144.85Z" fill="#4E26FF"/>
<path opacity="0.1" d="M252.044 131.966C286.31 131.966 314.088 104.216 314.088 69.9832C314.088 35.7508 286.31 8 252.044 8C217.778 8 190 35.7508 190 69.9832C190 104.216 217.778 131.966 252.044 131.966Z" fill="#4E26FF"/>
<path d="M168.127 67.3181H156.523V57.1291H149.596V67.3227H138.647C135.516 67.3227 132.015 64.1093 132.015 59.8124C132.015 55.5154 135.516 52.302 138.647 52.302H177.207V44.2845H156.523V37H149.596V44.2845H138.647C130.706 44.2845 124 51.3937 124 59.8077C124 68.2218 130.706 75.331 138.647 75.331H149.596V85.7875H156.523V75.331H168.127C171.3 75.331 174.985 78.6136 174.985 82.8414V83.3301C174.985 87.5579 171.295 90.8405 168.127 90.8405H126.97V98.8534H149.596V107H156.523V98.8534H168.127C176.05 98.8534 183 91.5966 183 83.3301V82.8414C183 74.5749 176.05 67.3181 168.127 67.3181Z" fill="white"/>
</svg>
