<svg width="370" height="240" viewBox="0 0 370 240" fill="none" xmlns="http://www.w3.org/2000/svg">
<path d="M185.044 179.85C219.31 179.85 247.088 152.099 247.088 117.867C247.088 83.6345 219.31 55.8836 185.044 55.8836C150.778 55.8836 123 83.6345 123 117.867C123 152.099 150.778 179.85 185.044 179.85Z" fill="#4E26FF"/>
<path opacity="0.4" d="M153.044 170.85C187.31 170.85 215.088 143.099 215.088 108.867C215.088 74.6345 187.31 46.8836 153.044 46.8836C118.778 46.8836 91 74.6345 91 108.867C91 143.099 118.778 170.85 153.044 170.85Z" fill="#4E26FF"/>
<path opacity="0.4" d="M218.044 188.85C252.31 188.85 280.088 161.099 280.088 126.867C280.088 92.6345 252.31 64.8836 218.044 64.8836C183.778 64.8836 156 92.6345 156 126.867C156 161.099 183.778 188.85 218.044 188.85Z" fill="#4E26FF"/>
<path opacity="0.1" d="M122.044 169.85C156.31 169.85 184.088 142.099 184.088 107.867C184.088 73.6345 156.31 45.8836 122.044 45.8836C87.7781 45.8836 60 73.6345 60 107.867C60 142.099 87.7781 169.85 122.044 169.85Z" fill="#4E26FF"/>
<path opacity="0.1" d="M94.044 183.966C128.31 183.966 156.088 156.216 156.088 121.983C156.088 87.7508 128.31 60 94.044 60C59.7781 60 32 87.7508 32 121.983C32 156.216 59.7781 183.966 94.044 183.966Z" fill="#4E26FF"/>
<path opacity="0.1" d="M251.044 189.85C285.31 189.85 313.088 162.099 313.088 127.867C313.088 93.6345 285.31 65.8836 251.044 65.8836C216.778 65.8836 189 93.6345 189 127.867C189 162.099 216.778 189.85 251.044 189.85Z" fill="#4E26FF"/>
<path opacity="0.1" d="M284.044 176.966C318.31 176.966 346.088 149.216 346.088 114.983C346.088 80.7508 318.31 53 284.044 53C249.778 53 222 80.7508 222 114.983C222 149.216 249.778 176.966 284.044 176.966Z" fill="#4E26FF"/>
<path d="M200.127 112.318H188.523V102.129H181.596V112.323H170.647C167.516 112.323 164.015 109.109 164.015 104.812C164.015 100.515 167.516 97.302 170.647 97.302H209.207V89.2845H188.523V82H181.596V89.2845H170.647C162.706 89.2845 156 96.3937 156 104.808C156 113.222 162.706 120.331 170.647 120.331H181.596V130.787H188.523V120.331H200.127C203.3 120.331 206.985 123.614 206.985 127.841V128.33C206.985 132.558 203.295 135.84 200.127 135.84H158.97V143.853H181.596V152H188.523V143.853H200.127C208.05 143.853 215 136.597 215 128.33V127.841C215 119.575 208.05 112.318 200.127 112.318Z" fill="white"/>
</svg>
