<svg width="297" height="112" viewBox="0 0 297 112" fill="none" xmlns="http://www.w3.org/2000/svg">
<path d="M178.52 50.64C192.504 50.64 203.84 39.3038 203.84 25.32C203.84 11.3362 192.504 0 178.52 0C164.536 0 153.2 11.3362 153.2 25.32C153.2 39.3038 164.536 50.64 178.52 50.64Z" fill="#00C4C4"/>
<path d="M225.06 111.46H132V90.46C132 78.84 141.42 69.41 153.05 69.41H204.02C215.64 69.41 225.07 78.83 225.07 90.46V111.46H225.06Z" fill="#00C4C4"/>
<g opacity="0.3">
<path d="M214.46 50.64C228.444 50.64 239.78 39.3038 239.78 25.32C239.78 11.3362 228.444 0 214.46 0C200.476 0 189.14 11.3362 189.14 25.32C189.14 39.3038 200.476 50.64 214.46 50.64Z" fill="#00C4C4"/>
<path d="M261 111.46H167.94V90.46C167.94 78.84 177.36 69.41 188.99 69.41H239.96C251.58 69.41 261.01 78.83 261.01 90.46V111.46H261Z" fill="#00C4C4"/>
</g>
<g opacity="0.1">
<path d="M249.46 50.64C263.444 50.64 274.78 39.3038 274.78 25.32C274.78 11.3362 263.444 0 249.46 0C235.476 0 224.14 11.3362 224.14 25.32C224.14 39.3038 235.476 50.64 249.46 50.64Z" fill="#00C4C4"/>
<path d="M296 111.46H202.94V90.46C202.94 78.84 212.36 69.41 223.99 69.41H274.96C286.58 69.41 296.01 78.83 296.01 90.46V111.46H296Z" fill="#00C4C4"/>
</g>
<path d="M118.53 50.64C132.514 50.64 143.85 39.3038 143.85 25.32C143.85 11.3362 132.514 0 118.53 0C104.546 0 93.21 11.3362 93.21 25.32C93.21 39.3038 104.546 50.64 118.53 50.64Z" fill="#4E26FF"/>
<path d="M165.06 111.46H72V90.46C72 78.84 81.42 69.41 93.05 69.41H144.02C155.64 69.41 165.07 78.83 165.07 90.46V111.46H165.06Z" fill="#4E26FF"/>
<g opacity="0.1">
<path d="M46.53 50.64C60.5138 50.64 71.85 39.3038 71.85 25.32C71.85 11.3362 60.5138 0 46.53 0C32.5461 0 21.21 11.3362 21.21 25.32C21.21 39.3038 32.5461 50.64 46.53 50.64Z" fill="#4E26FF"/>
<path d="M93.06 111.46H0V90.46C0 78.84 9.42 69.41 21.05 69.41H72.02C83.64 69.41 93.07 78.83 93.07 90.46V111.46H93.06Z" fill="#4E26FF"/>
</g>
<g opacity="0.3">
<path d="M80.53 50.64C94.5138 50.64 105.85 39.3038 105.85 25.32C105.85 11.3362 94.5138 0 80.53 0C66.5461 0 55.21 11.3362 55.21 25.32C55.21 39.3038 66.5461 50.64 80.53 50.64Z" fill="#4E26FF"/>
<path d="M127.06 111.46H34V90.46C34 78.84 43.42 69.41 55.05 69.41H106.02C117.64 69.41 127.07 78.83 127.07 90.46V111.46H127.06Z" fill="#4E26FF"/>
</g>
</svg>
