<svg width="216" height="218" viewBox="0 0 216 218" fill="none" xmlns="http://www.w3.org/2000/svg">
<path opacity="0.05" d="M108 218C167.647 218 216 169.199 216 109C216 48.801 167.647 0 108 0C48.3532 0 0 48.801 0 109C0 169.199 48.3532 218 108 218Z" fill="#00DCDC"/>
<path opacity="0.1" d="M91 200.453C141.258 200.453 182 159.508 182 109C182 58.492 141.258 17.5472 91 17.5472C40.7421 17.5472 0 58.492 0 109C0 159.508 40.7421 200.453 91 200.453Z" fill="#00DCDC"/>
<path opacity="0.3" d="M73.796 183.249C114.552 183.249 147.592 150.006 147.592 109C147.592 67.9935 114.552 34.7512 73.796 34.7512C33.0396 34.7512 0 67.9935 0 109C0 150.006 33.0396 183.249 73.796 183.249Z" fill="#00DCDC"/>
<path d="M61.9706 165.646C93.2555 165.646 118.617 140.285 118.617 109C118.617 77.7151 93.2555 52.3536 61.9706 52.3536C30.6856 52.3536 5.32418 77.7151 5.32418 109C5.32418 140.285 30.6856 165.646 61.9706 165.646Z" fill="#00DCDC"/>
<path d="M90.0088 136.313H82.0808C75.5674 136.313 70.251 131.012 70.251 124.483V79.6664H78.6764V124.483C78.6764 126.348 80.1998 127.872 82.0653 127.872H89.9933V136.313H90.0088Z" fill="#0B0E15"/>
<path d="M50.0113 88.0918H62.4473V79.6664H50.0113C43.6689 79.6664 38.5079 84.8274 38.5079 91.1698V102.984H26.8646V111.425H38.5079V136.313H46.9333V111.425H62.4473V103H46.9333V91.1853C46.9333 89.4753 48.3013 88.0918 50.0113 88.0918Z" fill="#0B0E15"/>
</svg>
