<svg width="370" height="240" viewBox="0 0 370 240" fill="none" xmlns="http://www.w3.org/2000/svg">
<path opacity="0.05" d="M202 227C261.647 227 310 178.199 310 118C310 57.801 261.647 9 202 9C142.353 9 94 57.801 94 118C94 178.199 142.353 227 202 227Z" fill="#00DCDC"/>
<path opacity="0.1" d="M185 209.453C235.258 209.453 276 168.508 276 118C276 67.492 235.258 26.5472 185 26.5472C134.742 26.5472 94 67.492 94 118C94 168.508 134.742 209.453 185 209.453Z" fill="#00DCDC"/>
<path opacity="0.3" d="M167.796 192.249C208.552 192.249 241.592 159.006 241.592 118C241.592 76.9935 208.552 43.7512 167.796 43.7512C127.04 43.7512 94 76.9935 94 118C94 159.006 127.04 192.249 167.796 192.249Z" fill="#00DCDC"/>
<path d="M155.971 174.646C187.255 174.646 212.617 149.285 212.617 118C212.617 86.7151 187.255 61.3536 155.971 61.3536C124.686 61.3536 99.3242 86.7151 99.3242 118C99.3242 149.285 124.686 174.646 155.971 174.646Z" fill="#00DCDC"/>
<path d="M184.009 145.313H176.081C169.567 145.313 164.251 140.012 164.251 133.483V88.6664H172.676V133.483C172.676 135.348 174.2 136.872 176.065 136.872H183.993V145.313H184.009Z" fill="#0B0E15"/>
<path d="M144.011 97.0918H156.447V88.6664H144.011C137.669 88.6664 132.508 93.8274 132.508 100.17V111.984H120.865V120.425H132.508V145.313H140.933V120.425H156.447V112H140.933V100.185C140.933 98.4753 142.301 97.0918 144.011 97.0918Z" fill="#0B0E15"/>
</svg>
