<svg width="472" height="365" viewBox="0 0 472 365" fill="none" xmlns="http://www.w3.org/2000/svg">
<path d="M139.749 242C153.062 242 163.77 231.302 163.77 218.003C163.77 204.703 153.062 194 139.749 194C126.436 194 115.728 204.703 115.728 218.003C115.728 231.302 126.436 242 139.749 242Z" fill="#2775CA"/>
<path d="M146.353 221.801C146.353 218.299 144.249 217.103 140.045 216.603C137.04 216.203 136.441 215.401 136.441 214.001C136.441 212.602 137.441 211.702 139.447 211.702C141.249 211.702 142.249 212.3 142.749 213.804C142.848 214.106 143.15 214.303 143.452 214.303H145.051C145.452 214.303 145.754 214.001 145.754 213.607V213.508C145.353 211.307 143.551 209.611 141.249 209.408V207.009C141.249 206.608 140.947 206.306 140.447 206.208H138.947C138.546 206.208 138.243 206.51 138.145 207.009V209.309C135.139 209.71 133.238 211.707 133.238 214.21C133.238 217.509 135.238 218.81 139.441 219.31C142.243 219.809 143.144 220.407 143.144 222.01C143.144 223.613 141.743 224.711 139.842 224.711C137.238 224.711 136.337 223.613 136.04 222.109C135.941 221.708 135.639 221.511 135.343 221.511H133.645C133.244 221.511 132.947 221.813 132.947 222.213V222.312C133.349 224.809 134.947 226.61 138.255 227.109V229.508C138.255 229.909 138.557 230.205 139.057 230.309H140.557C140.958 230.309 141.26 230.007 141.359 229.508V227.109C144.353 226.598 146.353 224.502 146.353 221.801Z" fill="white"/>
<path d="M134.645 232.301C126.838 229.502 122.832 220.802 125.733 213.101C127.233 208.902 130.535 205.702 134.639 204.204C135.04 204.007 135.238 203.705 135.238 203.205V201.805C135.238 201.405 135.04 201.103 134.639 201.004C134.54 201.004 134.337 201.004 134.238 201.103C124.727 204.105 119.524 214.205 122.53 223.7C124.332 229.299 128.634 233.602 134.238 235.397C134.639 235.594 135.04 235.397 135.139 234.996C135.238 234.897 135.238 234.799 135.238 234.595V233.196C135.244 232.899 134.941 232.499 134.645 232.301ZM145.254 201.103C144.853 200.905 144.452 201.103 144.353 201.503C144.254 201.602 144.254 201.701 144.254 201.904V203.304C144.254 203.705 144.557 204.105 144.853 204.303C152.66 207.102 156.666 215.802 153.759 223.503C152.259 227.702 148.957 230.902 144.853 232.4C144.452 232.597 144.254 232.899 144.254 233.399V234.799C144.254 235.199 144.452 235.501 144.853 235.6C144.952 235.6 145.155 235.6 145.254 235.501C154.765 232.499 159.968 222.399 156.962 212.904C155.16 207.201 150.759 202.903 145.254 201.103Z" fill="white"/>
<path d="M106.021 242.994C119.838 242.994 131.041 231.804 131.041 217.997C131.041 204.191 119.838 193 106.021 193C92.203 193 81 204.191 81 217.997C81 231.804 92.203 242.994 106.021 242.994Z" fill="#F5AC37" stroke="#131824" stroke-width="2"/>
<path d="M119.978 214.071H117.258C115.665 209.721 111.479 206.608 106.579 206.608H97.1611V214.071H93.9929V216.667H97.1611V219.263H93.9929V221.859H97.1611V229.322H106.579C111.479 229.322 115.665 226.209 117.258 221.859H119.978V219.263H117.874C117.921 218.839 117.95 218.404 117.95 217.968C117.95 217.527 117.921 217.097 117.874 216.673H119.978V214.071ZM99.7597 209.204H106.579C110.014 209.204 112.991 211.191 114.433 214.071H99.7597V209.204ZM106.579 226.726H99.7597V221.859H114.433C112.991 224.74 110.014 226.726 106.579 226.726ZM115.345 217.962C115.345 218.404 115.31 218.839 115.246 219.257H99.7539V216.661H115.246C115.316 217.091 115.345 217.521 115.345 217.962Z" fill="white"/>
<path d="M140.756 309C154.024 309 164.779 298.255 164.779 285C164.779 271.745 154.024 261 140.756 261C127.488 261 116.732 271.745 116.732 285C116.732 298.255 127.488 309 140.756 309Z" fill="#F5AC37"/>
<path d="M154.715 281.074H151.994C150.401 276.723 146.215 273.61 141.314 273.61H131.895V281.074H128.727V283.67H131.895V286.266H128.727V288.863H131.895V296.326H141.314C146.215 296.326 150.401 293.213 151.994 288.863H154.715V286.266H152.611C152.657 285.842 152.686 285.407 152.686 284.971C152.686 284.53 152.657 284.1 152.611 283.676H154.715V281.074ZM134.494 276.206H141.314C144.75 276.206 147.727 278.193 149.169 281.074H134.494V276.206ZM141.314 293.73H134.494V288.863H149.169C147.727 291.743 144.75 293.73 141.314 293.73ZM150.082 284.965C150.082 285.407 150.047 285.842 149.983 286.26H134.488V283.664H149.983C150.053 284.094 150.082 284.524 150.082 284.965Z" fill="white"/>
<path d="M107.029 310C120.895 310 132.053 298.854 132.053 285C132.053 271.146 120.895 260 107.029 260C93.1642 260 82 271.145 82 285C82 298.855 93.1642 310 107.029 310Z" fill="#00DEED" stroke="#131824" stroke-width="2"/>
<path d="M107.07 303.569L88.4826 285L107.07 266.431L125.657 285L107.07 303.569ZM91.0815 285L107.07 300.973L123.059 285L107.07 269.027L91.0815 285Z" fill="#3000FF"/>
<path d="M121.966 283.414C120.553 284.826 118.657 285.581 116.326 285.65C114.088 285.72 111.547 285.105 108.669 284.03C108.355 283.902 108.041 283.786 107.727 283.67C107.314 283.507 106.901 283.35 106.483 283.205C104.651 282.485 103.779 281.91 103.779 280.772C103.779 278.808 106.029 278.291 107.221 278.291C108.239 278.291 109.146 278.518 109.768 278.936C110.483 279.412 110.832 280.133 110.832 281.137H113C113 278.948 111.896 277.751 110.971 277.135C110.035 276.514 108.977 276.258 108.076 276.171V274.318H106.372V276.183C103.89 276.473 101.617 278.042 101.617 280.777C101.617 281.213 101.68 281.625 101.803 282.009C100.587 281.823 99.3781 281.759 98.2095 281.846C95.0758 282.084 92.442 283.182 90.6048 285.023L92.2094 286.626C93.6397 285.197 95.8316 284.303 98.3839 284.111C100.669 283.937 103.378 284.448 105.727 285.25C106.018 285.36 106.314 285.47 106.605 285.575C106.727 285.621 106.849 285.662 106.965 285.709C107.361 285.871 107.75 286.022 108.134 286.167C109.803 286.882 110.779 287.643 110.779 289.228C110.779 289.972 110.442 290.582 109.774 291.029C109.134 291.459 108.227 291.72 107.338 291.72C106.308 291.72 105.401 291.494 104.779 291.075C104.07 290.605 103.727 289.885 103.727 288.874H101.558C101.558 291.07 102.651 292.26 103.576 292.876C104.471 293.474 105.489 293.73 106.372 293.834V295.525H108.076V293.846C109.146 293.73 110.175 293.376 110.989 292.824C112.25 291.97 112.948 290.692 112.948 289.228C112.948 288.636 112.861 288.078 112.681 287.567C113.809 287.805 114.884 287.933 115.942 287.933C116.093 287.933 116.25 287.933 116.402 287.927C119.326 287.834 121.721 286.841 123.559 285.012L121.966 283.414Z" fill="#3000FF"/>
<path opacity="0.4" d="M353 203.729C377.301 203.729 397 184.048 397 159.772C397 135.495 377.301 115.815 353 115.815C328.699 115.815 309 135.495 309 159.772C309 184.048 328.699 203.729 353 203.729Z" fill="#4E26FF"/>
<path opacity="0.2" d="M353 235.6C377.301 235.6 397 215.92 397 191.643C397 167.366 377.301 147.686 353 147.686C328.699 147.686 309 167.366 309 191.643C309 215.92 328.699 235.6 353 235.6Z" fill="#4E26FF"/>
<path opacity="0.1" d="M353 265.914C377.301 265.914 397 246.234 397 221.957C397 197.68 377.301 178 353 178C328.699 178 309 197.68 309 221.957C309 246.234 328.699 265.914 353 265.914Z" fill="#4E26FF"/>
<path opacity="0.04" d="M353 295.914C377.301 295.914 397 276.234 397 251.957C397 227.68 377.301 208 353 208C328.699 208 309 227.68 309 251.957C309 276.234 328.699 295.914 353 295.914Z" fill="#4E26FF"/>
<path d="M353 169.118C377.301 169.118 397 149.437 397 125.161C397 100.884 377.301 81.2038 353 81.2038C328.699 81.2038 309 100.884 309 125.161C309 149.437 328.699 169.118 353 169.118Z" fill="#4E26FF"/>
<path d="M364.349 120.847H355.609V113.177H350.391V120.85H342.144C339.785 120.85 337.149 118.431 337.149 115.197C337.149 111.963 339.785 109.544 342.144 109.544H371.189V103.508H355.609V98.0251H350.391V103.508H342.144C336.162 103.508 331.111 108.86 331.111 115.194C331.111 121.527 336.162 126.879 342.144 126.879H350.391V134.75H355.609V126.879H364.349C366.739 126.879 369.515 129.35 369.515 132.532V132.9C369.515 136.082 366.736 138.553 364.349 138.553H333.348V144.585H350.391V150.717H355.609V144.585H364.349C370.317 144.585 375.552 139.122 375.552 132.9V132.532C375.552 126.309 370.317 120.847 364.349 120.847Z" fill="white"/>
<path d="M251 125L288 125" stroke="white" stroke-width="2" stroke-miterlimit="10"/>
<path d="M277 114L288 125L277 136" stroke="#DEDFE7" stroke-width="2"/>
<rect x="60" y="81" width="174" height="89" rx="18" fill="#222B3F"/>
<rect x="60" y="174" width="174" height="152" rx="18" fill="url(#paint0_linear)"/>
<path d="M139.638 150.263C152.871 150.263 163.58 139.517 163.558 126.263C163.536 113.008 152.791 102.263 139.558 102.263C126.325 102.263 115.616 113.008 115.638 126.263C115.66 139.517 126.406 150.263 139.638 150.263Z" fill="#50AF95"/>
<path d="M142.147 123.559V120.494H149.162V115.815H130.061V120.494H137.076V123.559C131.373 123.82 127.085 124.952 127.085 126.305C127.085 127.657 131.373 128.789 137.076 129.05V138.878H142.147V129.045C147.839 128.783 152.115 127.651 152.115 126.299C152.115 124.952 147.839 123.82 142.147 123.559ZM142.147 128.209C142.002 128.214 141.271 128.261 139.629 128.261C138.318 128.261 137.401 128.22 137.076 128.209V128.214C132.04 127.994 128.28 127.117 128.28 126.067C128.28 125.016 132.04 124.139 137.076 123.913V127.344C137.407 127.367 138.347 127.425 139.652 127.425C141.219 127.425 142.002 127.361 142.147 127.35V123.925C147.177 124.151 150.926 125.028 150.926 126.072C150.926 127.112 147.172 127.988 142.147 128.209Z" fill="white"/>
<path d="M106 151.098C119.853 151.098 131 139.953 131 126.101C131 112.249 119.854 101.098 106 101.098C92.1464 101.098 81 112.249 81 126.101C81 139.953 92.1468 151.098 106 151.098Z" fill="#2775CA" stroke="#222B3F" stroke-width="2"/>
<path d="M112.598 129.899C112.598 126.397 110.496 125.201 106.296 124.701C103.293 124.301 102.695 123.499 102.695 122.1C102.695 120.7 103.694 119.8 105.698 119.8C107.499 119.8 108.498 120.398 108.997 121.902C109.096 122.204 109.398 122.402 109.7 122.402H111.297C111.698 122.402 112 122.1 112 121.705V121.606C111.599 119.405 109.799 117.709 107.499 117.506V115.107C107.499 114.706 107.197 114.404 106.697 114.306H105.198C104.798 114.306 104.496 114.608 104.397 115.107V117.407C101.394 117.808 99.4947 119.806 99.4947 122.309C99.4947 125.607 101.493 126.908 105.692 127.408C108.492 127.907 109.392 128.505 109.392 130.108C109.392 131.711 107.992 132.809 106.093 132.809C103.491 132.809 102.591 131.711 102.294 130.207C102.196 129.806 101.894 129.609 101.597 129.609H99.9013C99.5005 129.609 99.2043 129.911 99.2043 130.311V130.41C99.6051 132.908 101.202 134.708 104.507 135.207V137.606C104.507 138.007 104.809 138.303 105.309 138.407H106.807C107.208 138.407 107.51 138.105 107.609 137.606V135.207C110.6 134.696 112.598 132.6 112.598 129.899Z" fill="white"/>
<path d="M100.9 140.399C93.0997 137.6 89.0978 128.9 91.9961 121.199C93.4947 117 96.7938 113.8 100.894 112.302C101.295 112.105 101.493 111.803 101.493 111.303V109.904C101.493 109.503 101.295 109.201 100.894 109.102C100.796 109.102 100.592 109.102 100.494 109.201C90.9913 112.203 85.7928 122.303 88.7957 131.798C90.5963 137.397 94.8945 141.7 100.494 143.495C100.894 143.692 101.295 143.495 101.394 143.094C101.493 142.995 101.493 142.897 101.493 142.693V141.294C101.499 140.998 101.196 140.597 100.9 140.399ZM111.5 109.201C111.1 109.003 110.699 109.201 110.6 109.602C110.501 109.7 110.501 109.799 110.501 110.002V111.402C110.501 111.803 110.803 112.203 111.1 112.401C118.9 115.2 122.902 123.9 119.998 131.601C118.499 135.8 115.2 139 111.1 140.498C110.699 140.696 110.501 140.998 110.501 141.497V142.897C110.501 143.297 110.699 143.599 111.1 143.698C111.198 143.698 111.402 143.698 111.5 143.599C121.003 140.597 126.201 130.497 123.198 121.002C121.398 115.299 117.001 111.001 111.5 109.201Z" fill="white"/>
<path d="M187 122L197.5 132L208 122" stroke="#6F7A96" stroke-width="3"/>
<rect x="60" y="174" width="174" height="152" fill="url(#paint1_linear)"/>
<defs>
<linearGradient id="paint0_linear" x1="147" y1="174" x2="147" y2="309.55" gradientUnits="userSpaceOnUse">
<stop stop-color="#222B3F" stop-opacity="0.54"/>
<stop offset="1" stop-color="#222B3F" stop-opacity="0"/>
</linearGradient>
<linearGradient id="paint1_linear" x1="147" y1="174" x2="147" y2="293.285" gradientUnits="userSpaceOnUse">
<stop stop-color="#131824" stop-opacity="0"/>
<stop offset="0.795668" stop-color="#131824" stop-opacity="0.9"/>
<stop offset="1" stop-color="#131824"/>
</linearGradient>
</defs>
</svg>
