<svg width="436" height="402" viewBox="0 0 436 402" fill="none" xmlns="http://www.w3.org/2000/svg">
<g clip-path="url(#clip0)">
<path opacity="0.1" d="M432.997 181.941C433.175 254.014 426.685 349.486 347.187 380.232C257.954 417.449 139.517 402.886 100.579 304.178L102.202 305.796C76.2431 278.287 40.5499 263.723 17.836 231.36C-19.4796 173.106 19.4584 97.0522 69.7534 72.7797C141.14 38.7981 233.618 37.18 316.361 61.4525C343.942 69.5433 384.502 61.4525 408.839 90.5795C428.308 114.852 428.308 143.979 432.38 172.232C432.64 175.501 432.737 178.673 432.997 181.941Z" fill="#4E26FF"/>
<path opacity="0.4" d="M391.239 200.885C391.239 213.898 389.725 226.565 386.879 238.707C385.448 244.786 383.688 250.717 381.615 256.517C362.895 332.917 286.993 376.243 214.71 376.243C146.046 378.05 97.238 314.877 70.572 256.517C68.4992 250.717 66.7391 244.786 65.3079 238.707C62.462 226.565 60.9485 213.898 60.9485 200.885C60.9485 194.379 61.3269 187.955 62.0672 181.645C62.8074 175.336 63.8931 169.126 65.3243 163.063C64.7486 130.761 68.3512 96.4719 93.6518 74.8171C113.507 56.7605 129.777 40.5276 147.839 24.2782C207.472 -31.6661 286.993 22.4709 329.369 72.1719C334.09 75.9508 338.581 79.9762 342.858 84.248C372.748 114.101 391.239 155.341 391.239 200.885Z" fill="#4E26FF"/>
<path d="M341.991 207.05C354.363 267.266 315.004 310.747 256.81 316.057C252.456 317.613 247.991 318.947 243.415 320.022C234.287 322.17 224.765 323.307 214.984 323.307C209.606 323.307 204.303 322.961 199.097 322.294C193.892 321.627 188.798 320.639 183.815 319.355C129.087 313.476 85.6579 272.712 91.5291 215.3C91.122 211.039 90.789 206.853 90.6533 202.679C90.1353 185.983 93.2312 169.286 99.3121 153.763C101.138 149.108 103.234 144.551 105.578 140.13C123.303 98.7104 161.601 74.938 202.378 72.1718C206.917 71.8631 211.481 71.8137 216.045 72.0359C263.939 75.9877 316.089 107.034 334.295 152.281C335.948 156.406 337.329 160.642 338.402 165.014C339.426 174.881 342.139 184.39 341.683 194.331C341.806 198.208 341.905 202.42 341.991 207.05Z" fill="#4E26FF"/>
<path d="M191.208 156.125L261.792 201.5L191.208 246.875V156.125Z" fill="#0B0E15"/>
</g>
<defs>
<clipPath id="clip0">
<rect width="436" height="400.894" fill="white" transform="translate(0 0.553223)"/>
</clipPath>
</defs>
</svg>
