<?xml version="1.0" encoding="utf-8"?>
<!-- Generator: Adobe Illustrator 24.1.2, SVG Export Plug-In . SVG Version: 6.00 Build 0)  -->
<svg version="1.1" id="Layer_1" xmlns="http://www.w3.org/2000/svg" xmlns:xlink="http://www.w3.org/1999/xlink" x="0px" y="0px"
	 viewBox="0 0 1142 600" style="enable-background:new 0 0 1142 600;" xml:space="preserve">
<style type="text/css">
	.st0{opacity:0.72;fill:#EBF7FF;}
	.st1{opacity:0.53;fill:#DEF6FC;}
	.st2{opacity:0.4;fill:#EEF9FF;}
</style>
<path class="st0" d="M152.7,426.4c-1,1.7-3.5,1.6-4.4-0.1L53.6,262.4c-0.5-0.8-0.5-1.8,0-2.6L166.7,75.7c1-1.7,3.5-1.6,4.4,0.1
	l94.6,163.9c0.5,0.8,0.5,1.8,0,2.6L152.7,426.4z"/>
<path class="st1" d="M482.3,597.8c1,1.7,3.5,1.6,4.4-0.1l41.1-71.1c0.5-0.8,0.5-1.8,0-2.6l-49.3-80.3c-1-1.7-3.5-1.6-4.4,0.1
	L433,514.9c-0.5,0.8-0.5,1.8,0,2.6L482.3,597.8z"/>
<g>
	<path class="st2" d="M827.7,42.3c0.1-2,2.2-3.1,3.9-2.2l266.6,153.9c0.8,0.5,1.3,1.4,1.3,2.3l-9.5,350.8c-0.1,2-2.2,3.1-3.9,2.2
		L819.5,395.4c-0.8-0.5-1.3-1.4-1.3-2.3L827.7,42.3z"/>
</g>
</svg>
