<?xml version="1.0" encoding="utf-8"?>
<!-- Generator: Adobe Illustrator 24.1.2, SVG Export Plug-In . SVG Version: 6.00 Build 0)  -->
<svg version="1.1" id="Layer_1" xmlns="http://www.w3.org/2000/svg" xmlns:xlink="http://www.w3.org/1999/xlink" x="0px" y="0px"
	 viewBox="0 0 1208 503" style="enable-background:new 0 0 1208 503;" xml:space="preserve">
<style type="text/css">
	.st0{fill:url(#SVGID_1_);}
	.st1{fill:url(#SVGID_2_);}
	.st2{fill:url(#SVGID_3_);}
	.st3{fill:url(#SVGID_4_);}
	.st4{fill:url(#SVGID_5_);}
	.st5{fill:url(#SVGID_6_);}
</style>
<radialGradient id="SVGID_1_" cx="413.5383" cy="603.1398" r="1" fx="413.9712" fy="602.2383" gradientTransform="matrix(136.7549 -78.9555 -83.1594 -144.0362 -6411.6836 119675.8984)" gradientUnits="userSpaceOnUse">
	<stop  offset="1.017608e-06" style="stop-color:#BCE4F9;stop-opacity:0.4"/>
	<stop  offset="1" style="stop-color:#DAE4F9;stop-opacity:0.5"/>
</radialGradient>
<path class="st0" d="M67.5,171.8c0.3,0.7,0.9,1.3,1.7,1.5l101.6,27.2c2.1,0.6,3.9-1.5,3-3.5L122.2,73c-0.3-0.7-0.9-1.3-1.7-1.5
	L19,44.3c-2.1-0.6-3.9,1.5-3,3.5L67.5,171.8z"/>
<radialGradient id="SVGID_2_" cx="413.313" cy="599.5365" r="1" gradientTransform="matrix(100.3221 57.921 59.4425 -102.9574 -76908.6328 38210.4805)" gradientUnits="userSpaceOnUse">
	<stop  offset="1.017608e-06" style="stop-color:#BCE4F9;stop-opacity:0.4"/>
	<stop  offset="1" style="stop-color:#DAE4F9;stop-opacity:0.5"/>
</radialGradient>
<path class="st1" d="M242,411.6c0.3-0.9,0.9-1.5,1.8-1.8l73.3-19.6c1.9-0.5,3.7,1.3,3.1,3.2l-25.8,86.4c-0.3,0.9-0.9,1.5-1.8,1.8
	l-73.3,19.6c-1.9,0.5-3.7-1.3-3.1-3.2L242,411.6z"/>
<radialGradient id="SVGID_3_" cx="412.5845" cy="598.8686" r="1" gradientTransform="matrix(78.9236 45.5666 46.7636 -80.9969 -59667.3711 29785.082)" gradientUnits="userSpaceOnUse">
	<stop  offset="1.017608e-06" style="stop-color:#BCE4F9;stop-opacity:0.4"/>
	<stop  offset="1" style="stop-color:#DAE4F9;stop-opacity:0.5"/>
</radialGradient>
<path class="st2" d="M956.1,69.7c0.3-0.6,0.9-1.1,1.6-1.3l55.4-14.8c2.2-0.6,4,1.7,2.9,3.7l-36,65.9c-0.3,0.6-0.9,1.1-1.6,1.3
	L923,139.3c-2.2,0.6-4-1.7-2.9-3.7L956.1,69.7z"/>
<radialGradient id="SVGID_4_" cx="411.7545" cy="599.7767" r="1" gradientTransform="matrix(85.6519 22.9504 23.5533 -87.902 -48553.4531 43722.0938)" gradientUnits="userSpaceOnUse">
	<stop  offset="1.017608e-06" style="stop-color:#BCE4F9;stop-opacity:0.4"/>
	<stop  offset="1" style="stop-color:#DAE4F9;stop-opacity:0.5"/>
</radialGradient>
<path class="st3" d="M846.6,452.1c-2.2-0.6-2.5-3.6-0.6-4.7l48.1-27.8c0.6-0.4,1.3-0.4,2-0.2l76.6,22.2c2.2,0.6,2.5,3.6,0.6,4.7
	l-48.1,27.8c-0.6,0.4-1.3,0.4-2,0.2L846.6,452.1z"/>
<radialGradient id="SVGID_5_" cx="422.6979" cy="601.127" r="1" gradientTransform="matrix(-59.0945 22.5365 23.1285 60.647 11542.4883 -45967.3711)" gradientUnits="userSpaceOnUse">
	<stop  offset="1.017608e-06" style="stop-color:#BCE4F9;stop-opacity:0.4"/>
	<stop  offset="1" style="stop-color:#DAE4F9;stop-opacity:0.5"/>
</radialGradient>
<path class="st4" d="M460.8,17.3c2.1-0.8,4.1,1.4,3.2,3.5l-15.4,34.3c-0.3,0.6-0.8,1.1-1.5,1.4l-51.6,18.5c-2.1,0.8-4.1-1.4-3.2-3.5
	l15.4-34.3c0.3-0.6,0.8-1.1,1.5-1.4L460.8,17.3z"/>
<radialGradient id="SVGID_6_" cx="414.3618" cy="599.4199" r="1" gradientTransform="matrix(97.0589 97.0589 99.608 -99.608 -98838.8984 19750.2773)" gradientUnits="userSpaceOnUse">
	<stop  offset="1.017608e-06" style="stop-color:#BCE4F9;stop-opacity:0.4"/>
	<stop  offset="1" style="stop-color:#DAE4F9;stop-opacity:0.5"/>
</radialGradient>
<path class="st5" d="M1112.3,244.4c0.5-0.6,1.2-0.9,1.9-0.9h90.2c2.2,0,3.4,2.6,1.9,4.3l-81.3,91.9c-0.5,0.6-1.2,0.9-1.9,0.9h-90.2
	c-2.2,0-3.4-2.6-1.9-4.3L1112.3,244.4z"/>
</svg>
